<?xml version="1.0" encoding="UTF-8" standalone="no"?>
<!-- Creator: CorelDRAW -->

<svg
   xml:space="preserve"
   width="768px"
   height="300px"
   style="shape-rendering:geometricPrecision; text-rendering:geometricPrecision; image-rendering:optimizeQuality; fill-rule:evenodd; clip-rule:evenodd"
   viewBox="0 0 768 300"
   version="1.1"
   id="svg66"
   sodipodi:docname="Logo_black_2.svg"
   inkscape:version="1.2.1 (9c6d41e410, 2022-07-14)"
   xmlns:inkscape="http://www.inkscape.org/namespaces/inkscape"
   xmlns:sodipodi="http://sodipodi.sourceforge.net/DTD/sodipodi-0.dtd"
   xmlns="http://www.w3.org/2000/svg"
   xmlns:svg="http://www.w3.org/2000/svg"><sodipodi:namedview
   id="namedview68"
   pagecolor="#ffffff"
   bordercolor="#000000"
   borderopacity="0.25"
   inkscape:showpageshadow="2"
   inkscape:pageopacity="0.0"
   inkscape:pagecheckerboard="0"
   inkscape:deskcolor="#d1d1d1"
   showgrid="false"
   inkscape:zoom="0.78666667"
   inkscape:cx="127.75424"
   inkscape:cy="488.77119"
   inkscape:window-width="2256"
   inkscape:window-height="1380"
   inkscape:window-x="-12"
   inkscape:window-y="-12"
   inkscape:window-maximized="1"
   inkscape:current-layer="Слой_x0020_1" />
 <defs
   id="defs52">
  <style
   type="text/css"
   id="style36">
   <![CDATA[
    .str0 {stroke:fuchsia;stroke-width:0.731429}
    .fil0 {fill:black}
    .fil2 {fill:#CCCCCC;fill-rule:nonzero}
    .fil1 {fill:white;fill-rule:nonzero}
    .fil4 {fill:url(#id0)}
    .fil3 {fill:url(#id1)}
   ]]>
  </style>
  <linearGradient
   id="id0"
   gradientUnits="userSpaceOnUse"
   x1="531.585"
   y1="380.587"
   x2="677.409"
   y2="380.587"
   gradientTransform="translate(-3.8135593,-209.74576)">
   <stop
   offset="0"
   style="stop-color:#CC66FF"
   id="stop38" />
   <stop
   offset="0.560784"
   style="stop-color:#FFE378"
   id="stop40" />
   <stop
   offset="1"
   style="stop-color:#FF9482"
   id="stop42" />
  </linearGradient>
  <linearGradient
   id="id1"
   gradientUnits="userSpaceOnUse"
   x1="542.656"
   y1="305.319"
   x2="380.441"
   y2="283.301"
   gradientTransform="translate(-3.8135593,-209.74576)">
   <stop
   offset="0"
   style="stop-color:#7070F7"
   id="stop45" />
   <stop
   offset="0.45098"
   style="stop-color:#99FFFF"
   id="stop47" />
   <stop
   offset="1"
   style="stop-color:#59FC84"
   id="stop49" />
  </linearGradient>
 </defs>
 <g
   id="Слой_x0020_1"
   inkscape:label="Слой 1">
  <metadata
   id="CorelCorpID_0Corel-Layer" />
  <rect
   class="fil0 str0"
   x="-5.6524377"
   y="-23.757271"
   width="775.43292"
   height="336.68549"
   id="rect55"
   style="fill:#151515;fill-opacity:1" />
  <path
   class="fil1"
   d="m 118.12544,249.00724 h -9.0507 l -8.77385,-18.8233 c -0.660845,-1.42885 -1.337049,-2.62766 -2.028249,-3.58034 -0.691566,-0.93733 -1.42921,-1.68997 -2.22793,-2.24329 -0.799451,-0.55333 -1.65961,-0.95269 -2.6123,-1.19845 -0.937326,-0.2304 -1.9979,-0.35365 -3.16562,-0.35365 h -3.78002 v 26.199 h -8.02085 v -58.8361 h 15.7499 c 3.42674,0 6.376959,0.36864 8.835659,1.12165 2.45833,0.75301 4.47159,1.79785 6.05403,3.15026 1.56709,1.35205 2.71982,2.98057 3.45746,4.88631 0.73765,1.90537 1.10629,4.01042 1.10629,6.33088 0,1.82821 -0.27685,3.56462 -0.81445,5.19351 -0.53796,1.64389 -1.33669,3.11918 -2.39689,4.45586 -1.07557,1.33705 -2.39726,2.48942 -3.96471,3.47282 -1.58245,0.96805 -3.3803,1.70569 -5.42391,2.18185 1.64389,0.56869 3.04238,1.56745 4.2101,2.99666 1.15237,1.41349 2.33545,3.31886 3.5339,5.68539 l 9.31218,19.3609 z m -12.8307,-42.6712 c 0,-3.1499 -0.98341,-5.51643 -2.95022,-7.06816 -1.96681,-1.56745 -4.732709,-2.35118 -8.297689,-2.35118 h -7.56005 v 19.4531 h 6.46912 c 1.89001,0 3.5957,-0.21468 5.11671,-0.66048 1.52137,-0.43008 2.811979,-1.07557 3.872549,-1.92073 1.06021,-0.86053 1.89001,-1.92073 2.47369,-3.16526 0.58405,-1.24489 0.87589,-2.6741 0.87589,-4.28727 z m 84.0591,42.6712 h -33.4515 v -58.8361 h 33.4515 v 6.7456 h -25.4457 v 18.2396 h 24.4469 v 6.74523 h -24.4469 v 20.2679 h 25.4457 v 6.83776 z m 77.8821,0 h -33.8512 v -58.8361 h 8.14409 v 51.9984 h 25.7072 v 6.83776 z m 52.9894,-52.0905 h -13.5526 v -6.7456 h 35.2029 v 6.7456 h -13.5526 v 45.2528 h 13.5526 v 6.83776 h -35.2029 v -6.83776 h 13.5526 z m 99.8093,-0.44581 -30.0251,45.0684 h 30.6088 v 7.46789 h -40.6583 v -5.99259 l 30.2095,-45.56 h -29.395 v -7.28357 h 39.2602 v 6.29979 z m 81.2164,52.5363 h -8.74313 l -4.08722,-12.8304 h -24.4933 l -4.14903,12.8304 h -8.32841 l 19.5456,-58.8361 h 10.9868 l 19.2688,58.8361 z m -15.1355,-19.991 -9.94194,-31.4697 -9.95694,31.4697 h 19.8989 z"
   id="path57" />
  
  <path
   class="fil3"
   d="m 411.46544,150.82724 -2.03483,0.10496 3.40114,-4.18487 z m 10.1742,-12.9232 21.4557,-22.5712 c 0.40887,-0.35438 0.56137,-0.36023 1.10373,-0.42862 l 53.2729,8.44032 -75.8323,14.5595 z m -27.0848,19.9885 c -0.21833,0.29001 -0.53248,0.40557 -0.72265,0.34852 l -20.006,-9.74848 c -0.13056,-0.10093 -0.15835,-0.10532 -0.17883,-0.26697 l 55.1292,-26.5022 -34.2217,36.1691 z m 119.337,-40.3712 c -0.17262,0.24356 -0.24247,0.14628 -0.44507,-0.0885 l -10.2075,-12.0031 22.3294,-4.84206 -11.6769,16.9337 z m -67.3331,-8.4853 17.8055,-38.171103 42.8167,48.187203 -60.5681,-9.58903 c -0.21029,-0.16311 -0.14153,-0.17737 -0.0541,-0.42716 z m 95.3805,-25.344003 8.73728,7.28905 -13.0231,1.34912 4.28581,-8.63817 z m -5.14999,-1.80955 -5.55227,11.2289 -32.7197,7.052073 -7.41083,-8.009143 23.4708,-10.7933 22.3364,0.361326 -0.12434,0.160183 z m -24.3452,-24.2739 -4.31872,17.4574 -0.85467,3.456 -19.8027,8.71534 c -0.49811,0.172617 -0.66853,0.03145 -1.06935,-0.443611 l -9.69582,-10.6697 c -0.11667,-0.230766 -0.13203,-0.299886 -0.11264,-0.607451 l 24.4963,-56.1346 11.3203,36.7843 0.12617,0.996937 -0.0889,0.44544 z m -116.066,-25.2365 63.2642,34.0151 -18.3205,38.705003 z m 102.051,-23.0882997 -26.511,61.6045997 -6.87067,-7.82629 c -0.59355,-0.553691 -1.02144,-0.864914 -1.74702,-1.22661 l -73.3886,-39.9876 c -2.90414,-0.9344 -5.34235,1.63694 -4.24082,4.53157 l 51.983,84.499703 -72.3171,34.7959 c -1.59634,0.88283 -2.03154,3.62167 -0.45019,4.9408 l 27.8115,13.6038 c 1.61463,0.74349 2.38117,1.01961 3.75808,-0.0406 l 6.92699,-7.17897 c 0.31853,-0.38692 0.46519,-0.49261 0.94317,-0.55332 l 10.4452,0.17115 c 0.74899,-0.11557 1.07813,-0.50944 1.29902,-1.17687 l 3.50903,-10.6825 c 0.12069,-0.34414 0.18359,-0.34011 0.51603,-0.4992 l 94.4607,-18.052 c 0.62135,-0.17189 0.94208,-0.41179 1.33486,-0.89198 l 18.2718,-26.608296 25.9591,-2.80869 c 1.70715,-0.254171 1.74446,-2.07982 0.88795,-2.99374 l -17.5291,-15.3406 c -1.02034,-1.05399 -1.89147,-1.11433 -3.33239,-1.17065 l -26.8295,-0.235154 4.62958,-18.5216 0.0881,-0.44544 -0.21577,-1.70935 -14.0244,-45.6931 C 503.09739,7.31689 499.67211,6.3536 498.42905,9.283699 Z"
   id="path61"
   style="fill:url(#id1)" />
  <path
   class="fil4"
   d="m 563.01844,215.94124 20.6917,-20.5389 c 0.2048,-0.2048 0.49627,-0.19859 0.75154,-0.11118 l 36.8976,12.7144 -58.3409,7.93563 z m -17.8575,9.14834 c -0.045,0.0442 -0.11703,0.0497 -0.18907,0.0314 l -6.84544,-2.64485 c 8.25051,-4.91813 16.5003,-9.8421 24.7365,-14.7818 l -17.702,17.3952 z m 82.1105,-21.2849 z m 7.46789,0.46665 c -0.2293,0.24027 -0.29221,0.094 -0.46702,-0.1558 l -5.1339,-8.24649 14.6242,-0.77787 c -3.0325,3.0325 -6.01746,6.12059 -9.02327,9.18016 z m -46.8286,-14.3148 16.0241,-23.8065 23.3366,37.6547 c -13.0165,-4.46025 -26.033,-8.92087 -39.0495,-13.3811 -0.22857,-0.0461 -0.36791,-0.17079 -0.31122,-0.46702 z m 68.7649,-0.77788 2.33326,-3.26802 c 0.0424,-0.0453 0.0947,-0.0428 0.15579,0 l 3.11113,3.73467 -5.60018,-0.46665 z m -7.00123,-0.31122 -24.2699,0.93367 -3.11113,-4.9792 -0.26405,-0.50578 16.4436,-4.0064 c 0.32622,-0.0819 0.59758,-0.1558 0.93331,-0.1558 l 14.4688,2.95643 -4.20059,5.75707 z m -87.7447,-57.5707 37.7746,29.6953 c 0.20809,0.20809 0.24357,0.36023 0.18578,0.64585 -5.28969,7.88334 -10.5794,15.7667 -15.8687,23.6507 -0.10423,0.14373 -0.20809,0.12654 -0.31122,0 l -21.7805,-53.9919 z m 0,0 z m 30.9595,-9.02473 19.6027,21.9392 0.62208,0.77788 0.15579,0.77787 7.46752,32.3643 -2.0224,0.77787 -11.9793,-19.294 c -0.28854,-0.43264 -0.56356,-0.87442 -0.93366,-1.24453 l -10.4232,-8.40229 -2.33399,-25.0511 -0.15543,-2.64521 z m -6.69001,-9.02437 v 0.77788 l 2.80064,30.0299 0.0768,1.15163 -31.503,-24.802 c -2.2645,-1.69874 -4.91557,-0.81774 -5.28969,2.17856 9.0752,22.6128 18.1504,45.2264 27.2256,67.84 0.11154,0.25782 0.0399,0.45933 -0.15543,0.62244 l -49.6344,29.7534 c -1.94816,1.16736 -1.36082,3.80233 0.16128,4.94409 l 13.8463,5.13463 c 2.10907,0.70254 3.15721,0.47177 4.82304,-0.77787 l 4.82231,1.08946 c 1.57147,0 2.33801,-0.16019 3.42309,-1.24489 l 4.20059,-7.77984 72.4981,-9.95803 c 0.96695,-0.13788 1.7525,-0.19712 2.48905,-0.93404 l 16.1799,-16.493 14.7566,0.93038 c 2.03447,0 6.67538,0.38802 5.18363,-3.10528 l -10.4499,-13.0736 c -0.89271,-1.1904 -1.99205,-1.42885 -3.42272,-1.71154 l -17.8911,-3.42309 c -0.97682,-0.13897 -1.85454,-0.0808 -2.80064,0.15579 l -11.0457,2.64521 -7.93454,-34.5428 -0.46665,-0.9333 -26.9144,-30.1857 c -2.15406,-1.4347 -4.31543,-0.60855 -4.97883,1.71154 z"
   id="path63"
   style="fill:url(#id0)" />
 </g>
</svg>
