<svg width="55" height="40" viewBox="0 0 55 40" fill="none" xmlns="http://www.w3.org/2000/svg">
<path fill-rule="evenodd" clip-rule="evenodd" d="M8.85551 25.2901L8.49653 25.3087L9.09656 24.5704L8.85551 25.2901ZM10.6504 23.0103L14.4356 19.0283C14.5077 18.9658 14.5346 18.9647 14.6303 18.9527L24.0286 20.4417L10.6504 23.0103H10.6504ZM5.87218 26.5366C5.83366 26.5878 5.77824 26.6081 5.74469 26.5981L2.21527 24.8783C2.19223 24.8605 2.18733 24.8597 2.18372 24.8312L11.9095 20.1557L5.87218 26.5366V26.5366ZM26.9254 19.4144C26.8949 19.4574 26.8826 19.4402 26.8469 19.3988L25.0461 17.2812L28.9854 16.427L26.9254 19.4144L26.9254 19.4144ZM15.0466 17.9174L18.1878 11.1833L25.7415 19.6844L15.0562 17.9928C15.0191 17.964 15.0312 17.9615 15.0466 17.9174L15.0466 17.9174ZM31.8735 13.4463L33.4149 14.7322L31.1174 14.9702L31.8735 13.4463V13.4463ZM30.9649 13.127L29.9854 15.108L24.213 16.3521L22.9056 14.9392L27.0463 13.035L30.9869 13.0988L30.9649 13.1271L30.9649 13.127ZM26.67 8.84469L25.9081 11.9245L25.7573 12.5342L22.2637 14.0717C22.1759 14.1022 22.1458 14.0773 22.0751 13.9935L20.3646 12.1111C20.344 12.0704 20.3413 12.0582 20.3447 12.004L24.6663 2.10082L26.6634 8.59023L26.6857 8.76611L26.67 8.8447V8.84469ZM6.19383 4.39251L17.3548 10.3934L14.1227 17.2217L6.19383 4.39251V4.39251ZM24.1975 0.319317L19.5205 11.1875L18.3083 9.80679C18.2036 9.70911 18.1281 9.6542 18.0001 9.59039L5.05305 2.53585C4.54071 2.37101 4.11057 2.82464 4.3049 3.3353L13.4756 18.2426L0.717591 24.3812C0.435967 24.537 0.35919 25.0201 0.638168 25.2529L5.54463 27.6528C5.82948 27.784 5.9647 27.8327 6.20762 27.6457L7.42966 26.3792C7.48586 26.3109 7.51173 26.2922 7.59606 26.2815L9.43878 26.3117C9.57091 26.2913 9.62898 26.2219 9.66795 26.1041L10.287 24.2195C10.3083 24.1588 10.3194 24.1595 10.378 24.1315L27.0426 20.9468C27.1522 20.9164 27.2088 20.8741 27.2781 20.7894L30.5016 16.0952L35.0813 15.5997C35.3824 15.5549 35.389 15.2328 35.2379 15.0716L32.1455 12.3652C31.9655 12.1793 31.8118 12.1686 31.5576 12.1587L26.8243 12.1172L27.6411 8.84964L27.6566 8.77105L27.6186 8.46949L25.1444 0.408401C25.0211 -0.0276799 24.4168 -0.197622 24.1975 0.319301V0.319317Z" fill="url(#paint0_linear_395_809)"/>
<path fill-rule="evenodd" clip-rule="evenodd" d="M35.5922 36.7776L39.2426 33.1541C39.2788 33.118 39.3302 33.1191 39.3752 33.1345L45.8846 35.3776L35.5922 36.7775V36.7776ZM32.4418 38.3915C32.4339 38.3993 32.4212 38.4003 32.4085 38.397L31.2008 37.9304C32.6564 37.0628 34.1118 36.1941 35.5648 35.3227L32.4418 38.3915V38.3915ZM48.2451 34.7188C48.2047 34.7612 48.1936 34.7354 48.1627 34.6913L47.257 33.2365L49.837 33.0992C49.302 33.6342 48.7754 34.179 48.2451 34.7188V34.7188ZM39.9837 32.1934L42.8106 27.9935L46.9276 34.6365C44.6313 33.8496 42.3349 33.0627 40.0386 32.2758C39.9983 32.2677 39.9737 32.2457 39.9837 32.1934L39.9837 32.1934ZM52.1151 32.0561L52.5267 31.4796C52.5342 31.4716 52.5434 31.4721 52.5542 31.4796L53.103 32.1385L52.1151 32.0561V32.0561ZM50.8799 32.0012L46.5983 32.166L46.0494 31.2875L46.0028 31.1983L48.9038 30.4915C48.9613 30.4771 49.0092 30.464 49.0684 30.464L51.621 30.9856L50.8799 32.0012V32.0012ZM35.4002 21.8447L42.0643 27.0835C42.101 27.1202 42.1073 27.1471 42.0971 27.1975C41.1639 28.5882 40.2307 29.979 39.2975 31.3699C39.2792 31.3952 39.2608 31.3922 39.2426 31.3699L35.4002 21.8447L35.4002 21.8447ZM40.862 20.2526L44.3203 24.1231L44.43 24.2603L44.4575 24.3975L45.7749 30.1072L45.4181 30.2444L43.3047 26.8406C43.2538 26.7643 43.2053 26.6863 43.14 26.621L41.3012 25.1387L40.8894 20.7193L40.862 20.2526H40.862ZM39.6817 18.6605V18.7978L40.1758 24.0956L40.1894 24.2988L34.6317 19.9232C34.2322 19.6235 33.7645 19.779 33.6985 20.3076C35.2995 24.2969 36.9005 28.2863 38.5016 32.2758C38.5213 32.3213 38.5086 32.3568 38.4741 32.3856L29.7177 37.6346C29.374 37.8406 29.4777 38.3054 29.7462 38.5069L32.1889 39.4127C32.561 39.5366 32.7459 39.4959 33.0398 39.2755L33.8905 39.4677C34.1678 39.4677 34.303 39.4394 34.4944 39.248L35.2355 37.8755L48.0255 36.1188C48.1961 36.0944 48.3347 36.084 48.4646 35.954L51.319 33.0443L53.9224 33.2085C54.2813 33.2085 55.1 33.2769 54.8368 32.6606L52.9933 30.3542C52.8358 30.1442 52.6419 30.1021 52.3895 30.0523L49.2331 29.4484C49.0608 29.4238 48.906 29.4341 48.7391 29.4758L46.7904 29.9425L45.3906 23.8485L45.3083 23.6839L40.5601 18.3586C40.1801 18.1055 39.7988 18.2512 39.6817 18.6605L39.6817 18.6605Z" fill="url(#paint1_linear_395_809)"/>
<defs>
<linearGradient id="paint0_linear_395_809" x1="31.3271" y1="15.5423" x2="2.70946" y2="11.658" gradientUnits="userSpaceOnUse">
<stop stop-color="#7070F7"/>
<stop offset="0.45098" stop-color="#99FFFF"/>
<stop offset="1" stop-color="#59FC84"/>
</linearGradient>
<linearGradient id="paint1_linear_395_809" x1="29.374" y1="28.8211" x2="55.1" y2="28.8211" gradientUnits="userSpaceOnUse">
<stop stop-color="#CC66FF"/>
<stop offset="0.560784" stop-color="#FFE378"/>
<stop offset="1" stop-color="#FF9482"/>
</linearGradient>
</defs>
</svg>
