<svg width="80" height="80" viewBox="0 0 80 80" fill="none" xmlns="http://www.w3.org/2000/svg">
<circle opacity="0.1" cx="40" cy="40" r="40" fill="#377CFD"/>
<path d="M48.7985 23.3112C47.1264 21.936 45.1684 20.9514 43.0673 20.4293C40.9662 19.9072 38.7751 19.8607 36.6538 20.2932C33.8292 20.8638 31.2377 22.2605 29.2082 24.3062C27.1786 26.3519 25.8025 28.9544 25.2544 31.7835C24.8542 33.9047 24.9269 36.088 25.4674 38.1779C26.008 40.2677 27.003 42.2126 28.3815 43.8737C29.6609 45.3173 30.3942 47.1635 30.4541 49.0915V54.5458C30.4541 55.9923 31.0288 57.3796 32.0516 58.4025C33.0745 59.4254 34.4618 60 35.9083 60H43.1806C44.6272 60 46.0145 59.4254 47.0374 58.4025C48.0602 57.3796 48.6349 55.9923 48.6349 54.5458V49.437C48.6959 47.3083 49.4779 45.2635 50.8529 43.6373C53.2621 40.6571 54.3977 36.8465 54.0131 33.0336C53.6284 29.2208 51.7544 25.7138 48.7985 23.2749V23.3112ZM44.9987 54.5458C44.9987 55.028 44.8072 55.4904 44.4662 55.8313C44.1253 56.1723 43.6628 56.3638 43.1806 56.3638H35.9083C35.4262 56.3638 34.9637 56.1723 34.6228 55.8313C34.2818 55.4904 34.0903 55.028 34.0903 54.5458V52.7277H44.9987V54.5458ZM48.0349 41.3829C46.2068 43.5511 45.1403 46.2591 44.9987 49.0915H41.3626V43.6373C41.3626 43.1551 41.171 42.6927 40.8301 42.3517C40.4891 42.0108 40.0267 41.8192 39.5445 41.8192C39.0623 41.8192 38.5999 42.0108 38.2589 42.3517C37.918 42.6927 37.7264 43.1551 37.7264 43.6373V49.0915H34.0903C34.0423 46.3064 33.0121 43.6278 31.1814 41.5284C29.9735 40.0812 29.1613 38.3457 28.8239 36.4911C28.4865 34.6365 28.6354 32.7262 29.2562 30.9463C29.8769 29.1664 30.9483 27.5778 32.3659 26.3353C33.7834 25.0928 35.4988 24.2388 37.3446 23.8567C38.931 23.53 40.5702 23.5608 42.1432 23.9466C43.7162 24.3324 45.1836 25.0637 46.4387 26.0874C47.6939 27.111 48.7054 28.4013 49.3997 29.8645C50.094 31.3278 50.4538 32.9273 50.4529 34.5469C50.4664 37.0375 49.6113 39.4548 48.0349 41.3829Z" fill="#377CFD"/>
</svg>
