<svg width="80" height="80" viewBox="0 0 80 80" fill="none" xmlns="http://www.w3.org/2000/svg">
<circle opacity="0.1" cx="40" cy="40" r="40" fill="#FD4C5C"/>
<path fill-rule="evenodd" clip-rule="evenodd" d="M57.4751 31.1248L56.1787 28.8773C55.6525 27.9642 54.7857 27.297 53.7683 27.022C52.751 26.747 51.6661 26.8866 50.7515 27.4103V27.4103C50.3025 27.675 49.8056 27.8485 49.2893 27.9209C48.7731 27.9933 48.2476 27.9631 47.7431 27.832C47.2385 27.7009 46.7648 27.4716 46.3491 27.1571C45.9333 26.8426 45.5837 26.4492 45.3203 25.9994C44.9789 25.4225 44.7958 24.7656 44.7896 24.0953V24.0953C44.8049 23.5628 44.7132 23.0327 44.5199 22.5362C44.3266 22.0398 44.0356 21.5873 43.6642 21.2054C43.2928 20.8235 42.8485 20.52 42.3576 20.313C41.8668 20.1059 41.3394 19.9995 40.8067 20H38.1972C37.6755 20.0003 37.1589 20.1036 36.6772 20.304C36.1955 20.5044 35.7582 20.798 35.3902 21.1678C35.0223 21.5377 34.731 21.9766 34.5331 22.4593C34.3353 22.9421 34.2347 23.4591 34.2371 23.9809V23.9809C34.2224 25.0269 33.7964 26.025 33.0515 26.7595C32.3065 27.4939 31.3024 27.9056 30.2563 27.9055C29.5849 27.8984 28.9272 27.7139 28.3501 27.3707V27.3707C27.4356 26.8471 26.3507 26.7075 25.3333 26.9825C24.316 27.2575 23.4492 27.9247 22.923 28.8378L21.5309 31.1248C21.0057 32.0371 20.8632 33.1202 21.1346 34.1373C21.406 35.1544 22.0693 36.0226 22.9792 36.5519V36.5519C23.5846 36.9012 24.0875 37.4038 24.437 38.009C24.7866 38.6143 24.9707 39.301 24.9707 40C24.9707 40.699 24.7866 41.3857 24.437 41.991C24.0875 42.5963 23.5846 43.0988 22.9792 43.4481V43.4481C22.07 43.9739 21.4067 44.8391 21.1351 45.8536C20.8636 46.8681 21.0059 47.949 21.5309 48.8586V48.8586L22.846 51.1248C23.1003 51.5835 23.4427 51.9874 23.8535 52.3134C24.2644 52.6393 24.7356 52.8809 25.2401 53.0242C25.7446 53.1675 26.2725 53.2096 26.7933 53.1483C27.3142 53.087 27.8178 52.9233 28.2752 52.6667C28.725 52.4043 29.2223 52.2336 29.7384 52.1643C30.2545 52.0951 30.7792 52.1288 31.2822 52.2635C31.7853 52.3981 32.2566 52.6311 32.6692 52.9489C33.0817 53.2667 33.4272 53.663 33.6857 54.1151C34.027 54.6915 34.2101 55.3491 34.2163 56.0191C34.2163 58.2187 35.9997 60 38.1972 60H40.8067C42.9979 60 44.7771 58.2312 44.7896 56.0379C44.7871 55.5144 44.8884 54.9956 45.0876 54.5115C45.2868 54.0274 45.5799 53.5876 45.9501 53.2175C46.3202 52.8473 46.76 52.5542 47.2441 52.355C47.7282 52.1558 48.247 52.0545 48.7705 52.057C49.4385 52.0757 50.094 52.2589 50.6745 52.5897C51.5868 53.1158 52.6703 53.2589 53.6878 52.9879C54.7054 52.7168 55.5741 52.0536 56.1037 51.1435L57.4751 48.8565C57.7376 48.4054 57.9084 47.9069 57.9777 47.3895C58.047 46.8722 58.0134 46.3463 57.8788 45.842C57.7442 45.3377 57.5113 44.8649 57.1935 44.4509C56.8757 44.0369 56.4791 43.6897 56.0267 43.4294V43.4294C55.5738 43.1691 55.1768 42.8218 54.8586 42.4074C54.5404 41.9931 54.3073 41.5199 54.1727 41.0151C54.038 40.5103 54.0046 39.9839 54.0742 39.4661C54.1439 38.9483 54.3152 38.4494 54.5784 37.9981C54.9238 37.3967 55.4233 36.8973 56.0267 36.5519C56.9322 36.0226 57.5922 35.1575 57.8634 34.1444C58.1346 33.1314 57.995 32.0522 57.4751 31.1414V31.1414V31.1248V31.1248Z" stroke="#FD4C5C" stroke-width="4" stroke-linecap="round" stroke-linejoin="round"/>
<path d="M39.5127 45.4839C42.5422 45.4839 44.9981 43.0281 44.9981 39.9986C44.9981 36.9691 42.5422 34.5132 39.5127 34.5132C36.4832 34.5132 34.0273 36.9691 34.0273 39.9986C34.0273 43.0281 36.4832 45.4839 39.5127 45.4839Z" stroke="#FD4C5C" stroke-width="4" stroke-linecap="round" stroke-linejoin="round"/>
</svg>
