<svg width="80" height="80" viewBox="0 0 80 80" fill="none" xmlns="http://www.w3.org/2000/svg">
<circle opacity="0.1" cx="40" cy="40" r="40" fill="#FD4C5C"/>
<path d="M38.1818 34.5455H45.4545C45.9368 34.5455 46.3992 34.3539 46.7402 34.0129C47.0812 33.6719 47.2727 33.2095 47.2727 32.7273C47.2727 32.2451 47.0812 31.7826 46.7402 31.4416C46.3992 31.1006 45.9368 30.9091 45.4545 30.9091H41.8182V29.0909C41.8182 28.6087 41.6266 28.1462 41.2857 27.8053C40.9447 27.4643 40.4822 27.2727 40 27.2727C39.5178 27.2727 39.0553 27.4643 38.7144 27.8053C38.3734 28.1462 38.1818 28.6087 38.1818 29.0909V30.9091C36.7352 30.9091 35.3478 31.4838 34.3249 32.5067C33.302 33.5296 32.7273 34.917 32.7273 36.3636C32.7273 37.8103 33.302 39.1977 34.3249 40.2206C35.3478 41.2435 36.7352 41.8182 38.1818 41.8182H41.8182C42.3004 41.8182 42.7629 42.0097 43.1038 42.3507C43.4448 42.6917 43.6364 43.1541 43.6364 43.6364C43.6364 44.1186 43.4448 44.581 43.1038 44.922C42.7629 45.263 42.3004 45.4545 41.8182 45.4545H34.5455C34.0632 45.4545 33.6008 45.6461 33.2598 45.9871C32.9188 46.3281 32.7273 46.7905 32.7273 47.2727C32.7273 47.7549 32.9188 48.2174 33.2598 48.5584C33.6008 48.8993 34.0632 49.0909 34.5455 49.0909H38.1818V50.9091C38.1818 51.3913 38.3734 51.8538 38.7144 52.1947C39.0553 52.5357 39.5178 52.7273 40 52.7273C40.4822 52.7273 40.9447 52.5357 41.2857 52.1947C41.6266 51.8538 41.8182 51.3913 41.8182 50.9091V49.0909C43.2648 49.0909 44.6522 48.5162 45.6751 47.4933C46.6981 46.4704 47.2727 45.083 47.2727 43.6364C47.2727 42.1897 46.6981 40.8023 45.6751 39.7794C44.6522 38.7565 43.2648 38.1818 41.8182 38.1818H38.1818C37.6996 38.1818 37.2372 37.9903 36.8962 37.6493C36.5552 37.3083 36.3636 36.8458 36.3636 36.3636C36.3636 35.8814 36.5552 35.419 36.8962 35.078C37.2372 34.737 37.6996 34.5455 38.1818 34.5455ZM40 20C36.0444 20 32.1776 21.173 28.8886 23.3706C25.5996 25.5682 23.0362 28.6918 21.5224 32.3463C20.0087 36.0009 19.6126 40.0222 20.3843 43.9018C21.156 47.7814 23.0608 51.3451 25.8579 54.1421C28.6549 56.9392 32.2186 58.844 36.0982 59.6157C39.9778 60.3874 43.9992 59.9913 47.6537 58.4776C51.3082 56.9638 54.4318 54.4004 56.6294 51.1114C58.827 47.8224 60 43.9556 60 40C60 34.6957 57.8929 29.6086 54.1421 25.8579C50.3914 22.1071 45.3043 20 40 20ZM40 56.3636C36.7636 56.3636 33.5998 55.4039 30.9089 53.6059C28.2179 51.8078 26.1205 49.2522 24.882 46.2621C23.6435 43.272 23.3194 39.9818 23.9508 36.8076C24.5822 33.6334 26.1407 30.7177 28.4292 28.4292C30.7177 26.1407 33.6334 24.5822 36.8076 23.9508C39.9819 23.3194 43.272 23.6434 46.2621 24.882C49.2522 26.1205 51.8078 28.2179 53.6059 30.9088C55.4039 33.5998 56.3636 36.7636 56.3636 40C56.3636 44.3399 54.6396 48.5021 51.5708 51.5708C48.5021 54.6396 44.3399 56.3636 40 56.3636Z" fill="#FD4C5C"/>
</svg>
