<svg width="64" height="64" viewBox="0 0 64 64" fill="none" xmlns="http://www.w3.org/2000/svg">
<rect width="64" height="64" rx="32" fill="#8CFFE5"/>
<path fill-rule="evenodd" clip-rule="evenodd" d="M33.0723 16C27.0809 16.2723 22.3149 21.2426 22.383 27.3021V28.8L20 35.8128L23.4043 36.6979V40.3745C23.4043 42.0085 24.766 43.3021 26.4 43.3021H30.8255L32.2553 47.3872L42.6043 44.4596L41.1064 34.9277C43.2851 32.817 44.5106 29.9574 44.5106 26.8936C44.5106 20.834 39.5404 16 33.4809 16C33.3447 16 33.2085 16 33.0723 16Z" fill="white"/>
<path fill-rule="evenodd" clip-rule="evenodd" d="M33.0724 15H33.4809C40.1152 15 45.5107 20.3037 45.5106 26.909L45.5048 27.277C45.4143 30.2144 44.285 32.9717 42.3128 35.1214L42.1721 35.269L43.7299 45.1804L31.6223 48.6056L30.1161 44.302L26.4001 44.3021C24.274 44.3021 22.514 42.6595 22.4092 40.5715L22.4043 40.3745L22.4041 37.47L18.707 36.5098L21.3821 28.637L21.3834 27.0107C21.4671 20.6718 26.417 15.4595 32.7256 15.0184L33.0724 15ZM33.0841 17L32.8403 17.0153C27.4948 17.4024 23.3223 21.8883 23.383 27.3021V28.9653L21.2921 35.115L24.4043 35.9246V40.3745C24.4043 41.4362 25.2981 42.3021 26.4001 42.3021H31.5351L32.8881 46.168L41.4781 43.738L40.038 34.5704L40.4106 34.2094C42.3251 32.3548 43.4238 29.8768 43.5054 27.2308L43.5107 26.8936C43.5107 21.416 39.0182 17 33.4809 17H33.0841Z" fill="black"/>
</svg>
