<svg width="54" height="54" viewBox="0 0 54 54" fill="none" xmlns="http://www.w3.org/2000/svg">
<path d="M3.375 20.175C3.375 14.2944 3.375 11.3542 4.51943 9.1081C5.5261 7.1324 7.1324 5.5261 9.1081 4.51943C11.3542 3.375 14.2944 3.375 20.175 3.375H33.825C39.7055 3.375 42.6458 3.375 44.8919 4.51943C46.8676 5.5261 48.4739 7.1324 49.4806 9.1081C50.625 11.3542 50.625 14.2944 50.625 20.175V33.825C50.625 39.7055 50.625 42.6458 49.4806 44.8919C48.4739 46.8676 46.8676 48.4739 44.8919 49.4806C42.6458 50.625 39.7056 50.625 33.825 50.625H20.175C14.2944 50.625 11.3542 50.625 9.1081 49.4806C7.1324 48.4739 5.5261 46.8676 4.51943 44.8919C3.375 42.6458 3.375 39.7056 3.375 33.825V20.175Z" fill="white"/>
<path d="M8.4375 39.7572C8.4375 41.0998 9.53434 42.1872 10.8857 42.1872H10.9209C9.54884 42.1872 8.4375 41.0998 8.4375 39.7572Z" fill="#FBBC05"/>
<path d="M29.4752 20.925V27.2692L38.0285 20.3701V14.2425C38.0285 12.8999 36.9317 11.8125 35.5803 11.8125H17.0498L17.0332 20.925H29.4752Z" fill="#FBBC05"/>
<path d="M29.4772 33.6163H17.0145L17 42.1881H35.5823C36.9357 42.1881 38.0305 41.1007 38.0305 39.7581V34.2258L29.4772 27.272V33.6163Z" fill="#34A853"/>
<path d="M17.0509 11.8125L8.4375 20.925H17.0364L17.0509 11.8125Z" fill="#EA4335"/>
<path d="M8.4375 33.6155V39.7573C8.4375 41.0998 9.54884 42.1873 10.9209 42.1873H16.9991L17.0136 33.6155H8.4375Z" fill="#1967D2"/>
<path d="M17.0364 20.9252H8.4375V33.6158H17.0136L17.0364 20.9252Z" fill="#4285F4"/>
<path d="M45.5498 37.5973V16.7399C45.0676 13.9718 42.0316 17.1449 42.0316 17.1449L38.0312 20.3707V34.2237L43.7576 38.8791C45.8251 39.1505 45.5498 37.5973 45.5498 37.5973Z" fill="#34A853"/>
<path d="M29.4766 27.2692L38.032 34.225V20.3721L29.4766 27.2692Z" fill="#188038"/>
</svg>
