<svg width="54" height="54" viewBox="0 0 54 54" fill="none" xmlns="http://www.w3.org/2000/svg">
<path d="M27 3.375C13.9693 3.375 3.375 13.9693 3.375 27C3.375 40.0307 13.9693 50.625 27 50.625C40.0307 50.625 50.625 40.0307 50.625 27C50.625 13.9693 40.0307 3.375 27 3.375Z" fill="#FDDD4C"/>
<path d="M16.6537 33.1597C16.1371 32.3776 17.4364 31.1939 16.9079 30.2001C16.6033 29.6268 16.1053 29.2697 15.5073 29.1947C14.9334 29.1227 14.3422 29.3328 13.9653 29.7434C13.3703 30.3909 13.2778 31.2722 13.3929 31.5841C13.435 31.6984 13.5012 31.7296 13.5486 31.7363C13.8726 31.7789 14.055 30.9472 14.1669 30.774C14.4762 30.2965 15.1787 30.152 15.6638 30.4659C16.5836 31.0608 15.786 32.0223 15.8548 32.8344C15.9218 33.6252 16.4145 33.943 16.8568 33.9764C17.287 33.9927 17.5879 33.7536 17.6639 33.5792C17.846 33.1626 17.0787 33.8032 16.6537 33.1597Z" fill="black"/>
<path d="M35.8724 25.9805C35.6311 25.9471 35.3674 25.9479 35.0931 25.9805C34.8848 25.7176 34.6982 25.2921 34.5929 24.7955C34.4056 23.9119 34.4251 23.2718 34.9479 23.1887C35.4707 23.1055 35.7234 23.6401 35.9107 24.5237C36.0364 25.1177 36.0123 25.6634 35.8724 25.9805Z" fill="black"/>
<path d="M30.1465 26.5062C30.1672 26.7063 30.1745 26.9087 30.1687 27.0951C30.6745 27.1248 31.0328 27.3651 31.1282 27.5175C31.1771 27.5962 31.1575 27.6474 31.1417 27.6712C31.0894 27.7527 30.9772 27.7401 30.7421 27.7137C30.5367 27.6906 30.3156 27.6704 30.0858 27.6809C29.9608 28.0644 29.59 28.1003 29.3295 27.8167C29.1475 27.8722 28.79 28.1004 28.6835 27.8524C28.6826 27.7293 28.8113 27.5504 29.0444 27.3923C28.8853 27.0888 28.7786 26.7638 28.7156 26.4274C28.3852 26.4869 28.0879 26.5795 27.8549 26.652C27.7455 26.6861 27.3126 26.8816 27.2619 26.6613C27.228 26.5091 27.465 26.2581 27.7155 26.0769C27.9953 25.8782 28.3059 25.737 28.6277 25.6555C28.6208 25.1762 28.7431 24.8419 29.0913 24.7865C29.523 24.7179 29.7906 25.0502 29.9757 25.6658C30.4975 25.8107 31.0185 26.1701 31.2485 26.5417C31.3381 26.6858 31.3554 26.7972 31.2974 26.8558C31.1528 27.0057 30.3517 26.5712 30.1465 26.5062Z" fill="black"/>
<path d="M33.5774 28.6601C33.9084 28.8205 34.2724 28.7574 34.3913 28.5191C34.5101 28.2807 34.3379 27.9577 34.0069 27.7974C33.6759 27.637 33.3119 27.7001 33.193 27.9384C33.0742 28.1768 33.2464 28.4998 33.5774 28.6601Z" fill="black"/>
<path d="M35.2066 27.4766C35.2126 27.112 35.436 26.821 35.7046 26.8254C35.9731 26.8306 36.186 27.1291 36.1799 27.4929C36.1739 27.8567 35.9505 28.1478 35.682 28.1434C35.4135 28.1389 35.2006 27.8404 35.2066 27.4766Z" fill="black"/>
<path fill-rule="evenodd" clip-rule="evenodd" d="M42.4887 31.9412C42.494 31.9598 42.4865 31.9337 42.4887 31.9412C43.028 31.9412 43.875 32.5531 43.875 34.0314C43.875 35.5023 43.2567 37.1684 43.1108 37.5382C40.8835 42.807 35.5677 45.7398 29.2357 45.5542C23.3324 45.3812 18.2979 42.3065 16.0947 37.2939C14.7626 37.2954 13.3891 36.717 12.345 35.8037C11.2445 34.8414 10.5661 33.5963 10.4337 32.2976C10.3306 31.2864 10.4562 30.3456 10.7774 29.5252L9.54006 28.4901C3.87749 23.7708 21.5881 4.33966 27.2521 9.21638C27.2807 9.24088 29.1793 11.0793 29.1838 11.0838C31.9149 9.93913 39.2325 7.7598 39.2407 12.8331C39.2437 14.5178 38.156 16.4825 36.4132 18.2652C38.4273 20.109 37.8962 22.7281 38.2169 25.1311L38.9165 25.3226C40.2501 25.6916 41.1987 26.1839 41.6628 26.6651C42.1269 27.1455 42.3571 27.611 42.4406 28.1567C42.5188 28.597 42.5083 29.3744 41.92 30.2439C42.1318 30.8048 42.3252 31.364 42.4887 31.9412ZM15.9947 35.927C16.1925 35.9314 16.3888 35.9188 16.5814 35.8861C18.6507 35.5379 19.1923 33.3193 18.8515 31.1408C18.4664 28.6809 16.7807 27.8137 15.6366 27.7521C15.3185 27.7357 15.0228 27.764 14.7791 27.8122C12.7369 28.2184 11.5838 29.9335 11.811 32.161C12.0163 34.1769 14.0818 35.8765 15.9947 35.927ZM11.3694 28.4166C12.0547 27.4343 13.1747 26.7237 14.4459 26.4794C16.0639 22.1923 18.7658 18.2422 22.3418 15.5239C24.9955 13.3387 27.8576 11.7713 27.8576 11.7713C27.8576 11.7713 26.3164 10.0071 25.8508 9.8772C22.9871 9.11391 16.8026 13.3239 12.8535 18.8867C11.2558 21.1372 8.96839 25.1229 10.0621 27.1729C10.1967 27.4269 10.9602 28.0795 11.3694 28.4166ZM34.5861 34.9424C34.5906 34.9885 34.562 35.036 34.5206 35.0531C34.5206 35.0531 32.2197 36.1096 28.5647 34.9937C28.6961 36.0892 30.0247 36.5044 30.953 36.6546C35.4819 37.4238 39.7161 34.8674 40.6691 34.2237C40.8328 34.1132 40.6671 34.3973 40.6375 34.439C39.4709 35.9247 36.3342 37.6451 32.2535 37.6444C30.4738 37.6436 28.6948 37.0251 28.0419 36.074C27.0287 34.5986 27.9915 32.4447 29.6802 32.6689C32.5346 32.9871 35.461 32.748 38.1034 31.5373C40.4074 30.4815 41.2777 29.3202 41.1468 28.3795C40.9438 26.9215 38.7822 26.6936 37.6897 26.3391C37.2143 26.1839 36.9796 26.0599 36.9262 25.1771C36.9029 24.7917 36.8352 23.4471 36.8103 22.8909C36.7667 21.9175 36.6479 20.5862 35.8114 20.0368C35.5933 19.8935 35.3511 19.8244 35.0961 19.8111C34.8928 19.8014 34.7722 19.8293 34.7074 19.8443C34.6928 19.8477 34.6811 19.8504 34.6718 19.8519C34.2202 19.9277 33.9434 20.1562 33.617 20.4257C33.5982 20.4412 33.5793 20.4569 33.5601 20.4726C32.5168 21.331 31.6359 21.4713 30.6558 21.4297C30.3506 21.417 30.036 21.3865 29.7041 21.3543C29.3989 21.3247 29.079 21.2937 28.7385 21.2738L28.3225 21.25C26.6812 21.1669 24.9211 22.5657 24.6284 24.5527C24.3015 26.7705 25.5412 28.1289 26.3474 29.0124C26.5466 29.2307 26.7193 29.42 26.8354 29.5861C26.9099 29.6863 26.9964 29.8274 26.9964 29.9618C26.9964 30.1221 26.8911 30.2491 26.788 30.3575C25.1136 32.0571 24.5781 34.7575 25.2091 37.0081C25.2881 37.2887 25.3882 37.5575 25.5063 37.8144C26.9866 41.2291 31.5795 42.8196 36.0657 41.3732C39.2098 40.3594 41.9877 37.9097 42.5534 34.5303C42.688 33.6497 42.4902 33.3097 42.2209 33.1456C41.9358 32.9726 41.5943 33.0327 41.5943 33.0327C41.5943 33.0327 41.4386 31.9806 40.9978 31.0243C39.6898 32.043 38.0063 32.7587 36.7246 33.1218C34.671 33.7034 32.4527 33.9298 30.3306 33.6555C29.4699 33.5443 28.8916 33.4696 28.6437 34.2645C31.4742 35.2877 34.4702 34.8496 34.4702 34.8496C34.5282 34.8437 34.5801 34.8853 34.5861 34.9424ZM26.4194 15.0873C24.8714 15.8692 23.1429 17.2613 21.7392 18.8629C21.6896 18.9201 21.7633 18.9988 21.8242 18.955C23.0368 18.084 24.6992 17.2747 26.8768 16.7505C29.3162 16.1632 31.6645 16.4097 33.099 16.7342C33.1712 16.7505 33.2163 16.628 33.1524 16.5923C32.2046 16.0674 30.7499 15.711 29.7178 15.7036C29.6674 15.7028 29.6389 15.6449 29.6689 15.6048C29.8472 15.368 30.0917 15.1341 30.3151 14.9648C30.3647 14.9262 30.3346 14.8467 30.2715 14.8504C28.9876 14.9283 26.0554 16.2653 26.0659 16.2166C26.1411 15.8602 26.3781 15.3895 26.5007 15.1697C26.53 15.1177 26.4728 15.0606 26.4194 15.0873Z" fill="black"/>
</svg>
