<svg width="54" height="54" viewBox="0 0 54 54" fill="none" xmlns="http://www.w3.org/2000/svg">
<ellipse cx="17.7188" cy="16.875" rx="14.3438" ry="13.5" fill="#184AA9"/>
<circle cx="37.125" cy="37.125" r="13.5" fill="#2173F0"/>
<circle cx="27" cy="27" r="21.9375" fill="url(#paint0_linear_35_786)"/>
<path d="M27.116 15.1875C30.6824 15.1875 35.4375 16.875 34.2487 19.125C32.6239 22.2003 29.4936 19.125 27.116 19.125C24.7385 19.125 23.5497 20.25 23.5497 21.375C23.5497 22.5 24.1441 23.625 27.116 24.75C30.088 25.875 35.4375 27.5625 35.4375 32.0625C35.4375 36.5625 31.2768 38.8125 25.9273 38.8125C21.1351 38.8125 17.6058 36.5625 18.7946 34.3125C20.1617 31.725 23.5497 34.875 25.9273 34.875C28.3048 34.875 30.6824 34.3125 30.6824 32.0625C30.6824 29.8125 27.116 29.25 24.7384 28.125C21.7664 26.7187 18.7945 25.3125 18.7945 21.375C18.7945 17.4375 23.5497 15.1875 27.116 15.1875Z" fill="white"/>
<defs>
<linearGradient id="paint0_linear_35_786" x1="9.9375" y1="13.5937" x2="42.8438" y2="41.0156" gradientUnits="userSpaceOnUse">
<stop stop-color="#297AC0"/>
<stop offset="1" stop-color="#48B0F9"/>
</linearGradient>
</defs>
</svg>
