<svg width="54" height="54" viewBox="0 0 54 54" fill="none" xmlns="http://www.w3.org/2000/svg">
<path d="M44.7191 25.312C47.0489 25.312 48.9375 23.4233 48.9375 21.0936C48.9375 18.7638 47.0487 16.8752 44.7189 16.8752C42.389 16.8752 40.5 18.764 40.5 21.0939V25.312H44.7191ZM32.9063 25.312C35.2362 25.312 37.125 23.4232 37.125 21.0932V9.28144C37.125 6.95148 35.2362 5.06268 32.9063 5.06268C30.5763 5.06268 28.6875 6.95148 28.6875 9.28143V21.0932C28.6875 23.4232 30.5763 25.312 32.9063 25.312Z" fill="#2EB67D"/>
<path d="M9.28088 28.688C6.95114 28.688 5.0625 30.5766 5.0625 32.9064C5.0625 35.2361 6.95132 37.1248 9.28107 37.1248C11.611 37.1248 13.5 35.236 13.5 32.906V28.688H9.28088ZM21.0937 28.688C18.7638 28.688 16.875 30.5768 16.875 32.9067V44.7185C16.875 47.0485 18.7638 48.9373 21.0937 48.9373C23.4237 48.9373 25.3125 47.0485 25.3125 44.7185V32.9067C25.3125 30.5768 23.4237 28.688 21.0937 28.688Z" fill="#E01E5A"/>
<path d="M28.6882 44.7191C28.6882 47.0489 30.5769 48.9375 32.9066 48.9375C35.2364 48.9375 37.125 47.0487 37.125 44.7189C37.125 42.389 35.2362 40.5 32.9062 40.5L28.6882 40.5L28.6882 44.7191ZM28.6882 32.9062C28.6882 35.2362 30.577 37.125 32.907 37.125L44.7187 37.125C47.0487 37.125 48.9375 35.2362 48.9375 32.9063C48.9375 30.5763 47.0487 28.6875 44.7187 28.6875L32.907 28.6875C30.577 28.6875 28.6882 30.5763 28.6882 32.9062Z" fill="#ECB22E"/>
<path d="M25.3118 9.28089C25.3118 6.95114 23.4231 5.0625 21.0934 5.0625C18.7636 5.0625 16.875 6.95132 16.875 9.28107C16.875 11.611 18.7638 13.5 21.0938 13.5L25.3118 13.5L25.3118 9.28089ZM25.3118 21.0938C25.3118 18.7638 23.423 16.875 21.093 16.875L9.28125 16.875C6.9513 16.875 5.0625 18.7638 5.0625 21.0937C5.0625 23.4237 6.9513 25.3125 9.28125 25.3125L21.093 25.3125C23.423 25.3125 25.3118 23.4237 25.3118 21.0938Z" fill="#36C5F0"/>
</svg>
