<svg width="54" height="54" viewBox="0 0 54 54" fill="none" xmlns="http://www.w3.org/2000/svg">
<path d="M27 3.375C13.9693 3.375 3.375 13.9693 3.375 27C3.375 40.0307 13.9693 50.625 27 50.625C40.0307 50.625 50.625 40.0307 50.625 27C50.625 13.9693 40.0307 3.375 27 3.375Z" fill="#F48024"/>
<path d="M32.9741 30.9872L20.4321 29.1743L20.8668 26.4273L33.1313 28.7858L32.9741 30.9872Z" fill="white"/>
<path d="M33.1961 28.0644L22.097 22.8848L23.1144 20.665L34.2135 25.8446L33.1961 28.0644Z" fill="white"/>
<path d="M34.6759 25.2897L25.2417 17.4278L26.8141 15.578L36.2483 23.4398L34.6759 25.2897Z" fill="white"/>
<path d="M29.3114 13.1732L31.2537 11.6933L38.5606 21.4975L36.6183 22.9774L29.3114 13.1732Z" fill="white"/>
<path d="M33.0111 34.6314H20.0622V31.8566H33.0111V34.6314Z" fill="white"/>
<path d="M34.8609 29.0816V36.481H18.2123V29.0816H15.4375V39.2558H37.6356V29.0816H34.8609Z" fill="white"/>
</svg>
