<svg width="54" height="54" viewBox="0 0 54 54" fill="none" xmlns="http://www.w3.org/2000/svg">
<path fill-rule="evenodd" clip-rule="evenodd" d="M42.21 6.75H11.8157C9.018 6.75 6.75 9.01656 6.75 11.8125V42.1875C6.75 44.9834 9.018 47.25 11.8157 47.25H42.21C44.9977 47.2359 47.25 44.9734 47.25 42.1875V11.8125C47.25 9.02656 44.9977 6.76414 42.21 6.75ZM15.1875 11.8125H21.9375C23.8015 11.8125 25.3125 13.3235 25.3125 15.1875V38.8125C25.3125 40.6765 23.8015 42.1875 21.9375 42.1875H15.1875C13.3235 42.1875 11.8125 40.6765 11.8125 38.8125V15.1875C11.8125 13.3235 13.3235 11.8125 15.1875 11.8125ZM38.8125 11.8125H32.0625C30.1985 11.8125 28.6875 13.3235 28.6875 15.1875V27C28.6875 28.864 30.1985 30.375 32.0625 30.375H38.8125C40.6765 30.375 42.1875 28.864 42.1875 27V15.1875C42.1875 13.3235 40.6765 11.8125 38.8125 11.8125Z" fill="url(#paint0_linear_35_754)"/>
<defs>
<linearGradient id="paint0_linear_35_754" x1="27.0129" y1="47.25" x2="27.0129" y2="6.75" gradientUnits="userSpaceOnUse">
<stop stop-color="#0052CC"/>
<stop offset="0.51698" stop-color="#217EF8"/>
<stop offset="1" stop-color="#2684FF"/>
</linearGradient>
</defs>
</svg>
