<svg width="54" height="54" viewBox="0 0 54 54" fill="none" xmlns="http://www.w3.org/2000/svg">
<circle cx="27" cy="27" r="23.625" fill="#028CB0"/>
<path d="M10.8935 27C10.8935 33.3826 14.606 38.88 19.9748 41.493L12.2928 20.446C11.3703 22.5079 10.8935 24.7412 10.8935 27ZM27 43.1065C28.8705 43.1065 30.6697 42.7781 32.3546 42.1927L32.2403 41.9785L27.2856 28.4136L22.4593 42.4497C23.8872 42.8781 25.415 43.1065 27 43.1065ZM29.2132 19.4465L35.039 36.7667L36.6525 31.3979C37.3379 29.1704 37.8662 27.5712 37.8662 26.1861C37.8662 24.1871 37.1523 22.8163 36.5525 21.7597C35.7244 20.4175 34.9676 19.2894 34.9676 17.9758C34.9676 16.4908 36.0813 15.12 37.6806 15.12H37.8805C34.9127 12.3955 31.0288 10.8868 27 10.8935C24.3324 10.893 21.7066 11.5556 19.3587 12.8218C17.0108 14.088 15.0145 15.9179 13.5493 18.1471L14.5774 18.1757C16.2623 18.1757 18.8611 17.9615 18.8611 17.9615C19.7463 17.9187 19.8463 19.1895 18.9753 19.2894C18.9753 19.2894 18.1043 19.4037 17.119 19.4465L23.0019 36.8952L26.5288 26.3289L24.0157 19.4465C23.4528 19.4154 22.8909 19.3678 22.3308 19.3037C21.4598 19.2466 21.5598 17.9187 22.4308 17.9615C22.4308 17.9615 25.0866 18.1757 26.6716 18.1757C28.3565 18.1757 30.9552 17.9615 30.9552 17.9615C31.8263 17.9187 31.9405 19.1895 31.0695 19.2894C31.0695 19.2894 30.1985 19.3894 29.2132 19.4465ZM35.0961 40.9219C37.5327 39.5051 39.5549 37.4737 40.9605 35.0307C42.3662 32.5877 43.1062 29.8186 43.1065 27C43.1065 24.2013 42.3926 21.574 41.1361 19.2751C41.3912 21.8043 41.0083 24.3571 40.0223 26.7001L35.0961 40.9219ZM27 45.5625C22.0769 45.5625 17.3555 43.6068 13.8743 40.1257C10.3932 36.6445 8.4375 31.9231 8.4375 27C8.4375 22.0769 10.3932 17.3555 13.8743 13.8743C17.3555 10.3932 22.0769 8.4375 27 8.4375C31.9231 8.4375 36.6445 10.3932 40.1257 13.8743C43.6068 17.3555 45.5625 22.0769 45.5625 27C45.5625 31.9231 43.6068 36.6445 40.1257 40.1257C36.6445 43.6068 31.9231 45.5625 27 45.5625Z" fill="white"/>
</svg>
