<svg width="105" height="51" viewBox="0 0 105 51" fill="none" xmlns="http://www.w3.org/2000/svg">
<path d="M7.10408 42.6108H5.50737L3.95951 39.2901C3.84292 39.038 3.72363 38.8265 3.60169 38.6584C3.47968 38.4931 3.34955 38.3603 3.20864 38.2627C3.0676 38.1651 2.91585 38.0946 2.74778 38.0513C2.58242 38.0106 2.39532 37.9889 2.18931 37.9889H1.52245V42.6108H0.107422V32.2311H2.88599C3.49053 32.2311 4.011 32.2961 4.44476 32.429C4.87846 32.5618 5.23363 32.7461 5.5128 32.9847C5.78926 33.2233 5.99263 33.5106 6.12276 33.8468C6.2529 34.1829 6.31793 34.5543 6.31793 34.9636C6.31793 35.2862 6.26909 35.5925 6.17425 35.8799C6.07934 36.1699 5.93843 36.4302 5.75139 36.666C5.56164 36.9019 5.32847 37.1052 5.05194 37.2786C4.77277 37.4494 4.4556 37.5796 4.09507 37.6636C4.38508 37.7639 4.6318 37.9401 4.83781 38.1922C5.04111 38.4416 5.24982 38.7777 5.46125 39.1952L7.10409 42.6108L7.10408 42.6108ZM4.84051 35.0829C4.84051 34.5272 4.66702 34.1097 4.32004 33.8359C3.97306 33.5594 3.4851 33.4211 2.85618 33.4211H1.52245V36.853H2.66372C2.99715 36.853 3.29806 36.8151 3.5664 36.7365C3.8348 36.6606 4.06248 36.5467 4.24959 36.3976C4.43663 36.2458 4.58302 36.0588 4.68599 35.8392C4.78903 35.6196 4.84051 35.3675 4.84051 35.0829V35.0829ZM19.6701 42.6108H13.7686V32.2311H19.6701V33.4211H15.181V36.6389H19.4939V37.8289H15.181V41.4045H19.6701V42.6108ZM33.4099 42.6108H27.4379V32.2311H28.8747V41.4046H33.4099V42.6109L33.4099 42.6108ZM42.7582 33.4211H40.3672V32.2311H46.5777V33.4211H44.1868V41.4046H46.5777V42.6109H40.3672V41.4046H42.7582V33.4211ZM60.3663 33.3425L55.0694 41.2934H60.4693V42.6108H53.2965V41.5536L58.626 33.516H53.4402V32.2311H60.3664V33.3425L60.3663 33.3425ZM74.6944 42.6108H73.1519L72.4309 40.3473H68.1098L67.3779 42.6108H65.9086L69.3568 32.2311H71.295L74.6944 42.6108H74.6944ZM72.0242 39.0841L70.2703 33.5322L68.5137 39.0841H72.0242Z" fill="black"/>
<path d="M2.83972 47.7949L2.61055 47.9708C2.48455 47.8064 2.33286 47.6817 2.15563 47.5967C1.97833 47.5118 1.7842 47.4693 1.57187 47.4693C1.33999 47.4693 1.12565 47.5246 0.928163 47.6358C0.730672 47.747 0.577633 47.8967 0.469113 48.0841C0.360593 48.2721 0.30601 48.4831 0.30601 48.717C0.30601 49.0715 0.427305 49.3668 0.670669 49.6041C0.913324 49.8406 1.21998 49.9592 1.59006 49.9592C1.99653 49.9592 2.33693 49.8002 2.61055 49.4814L2.83972 49.6553C2.69481 49.8393 2.51416 49.9822 2.29777 50.0826C2.08144 50.1837 1.83949 50.2336 1.57187 50.2336C1.06365 50.2336 0.663251 50.0644 0.369369 49.7261C0.123359 49.4409 0 49.0958 0 48.6914C0 48.2661 0.148974 47.9088 0.447567 47.6183C0.745514 47.3278 1.11888 47.1829 1.5678 47.1829C1.83949 47.1829 2.08415 47.2368 2.30254 47.344C2.52094 47.4511 2.70023 47.6015 2.83972 47.7949ZM4.45011 47.9566C4.78038 47.9566 5.05407 48.0766 5.27175 48.3166C5.46924 48.535 5.56763 48.7938 5.56763 49.0924C5.56763 49.3924 5.46318 49.6553 5.25491 49.8797C5.04594 50.1042 4.77767 50.2161 4.45011 50.2161C4.12113 50.2161 3.85221 50.1042 3.64324 49.8797C3.43433 49.6553 3.33051 49.3924 3.33051 49.0924C3.33051 48.7952 3.42891 48.537 3.62646 48.3186C3.8435 48.0773 4.11848 47.9566 4.45011 47.9566ZM4.45011 48.2276C4.22094 48.2276 4.02409 48.3126 3.85963 48.4824C3.69517 48.6523 3.61291 48.8572 3.61291 49.0985C3.61291 49.2535 3.65001 49.3984 3.7255 49.5326C3.80034 49.6674 3.90144 49.7705 4.02951 49.844C4.15687 49.9168 4.29707 49.9532 4.45011 49.9532C4.60244 49.9532 4.74263 49.9168 4.8707 49.844C4.99806 49.7705 5.09987 49.6674 5.17472 49.5326C5.24956 49.3984 5.28724 49.2535 5.28724 49.0985C5.28724 48.8572 5.20433 48.6523 5.03923 48.4824C4.87412 48.3126 4.67792 48.2276 4.45011 48.2276ZM6.13527 48.0119H6.4096V48.3833C6.50599 48.2465 6.60439 48.1468 6.7062 48.0834C6.84569 47.9991 6.99266 47.9566 7.14634 47.9566C7.25015 47.9566 7.34925 47.9775 7.44287 48.018C7.5359 48.0591 7.61275 48.113 7.67139 48.1811C7.73075 48.2492 7.78191 48.3463 7.82572 48.4723C7.91811 48.3038 8.03341 48.1757 8.17154 48.0881C8.30974 48.0004 8.45801 47.9566 8.61775 47.9566C8.76608 47.9566 8.89751 47.9944 9.01138 48.0692C9.12532 48.1447 9.21023 48.2492 9.26552 48.3833C9.32081 48.5175 9.34843 48.719 9.34843 48.988V50.1608H9.06603V48.988C9.06603 48.7574 9.04919 48.599 9.0168 48.5128C8.98377 48.4264 8.92719 48.357 8.84763 48.3044C8.76808 48.2519 8.67304 48.2256 8.56246 48.2256C8.42768 48.2256 8.30503 48.2647 8.1938 48.3443C8.08257 48.4231 8.00166 48.5283 7.94979 48.6597C7.89856 48.7918 7.87295 49.0116 7.87295 49.3196V50.1608H7.59862V49.0607C7.59862 48.8012 7.58242 48.6253 7.5501 48.5323C7.51771 48.44 7.46177 48.3651 7.38158 48.3092C7.30138 48.2532 7.20563 48.2256 7.09511 48.2256C6.96704 48.2256 6.84775 48.2641 6.73652 48.3409C6.62529 48.4184 6.54309 48.5216 6.4898 48.6523C6.43657 48.7824 6.4096 48.9819 6.4096 49.2502V50.1608H6.13527V48.0119ZM9.98477 48.0119H10.2591V48.3833C10.3555 48.2465 10.4539 48.1468 10.5557 48.0834C10.6952 47.9991 10.8422 47.9566 10.9958 47.9566C11.0996 47.9566 11.1987 47.9775 11.2924 48.018C11.3855 48.0591 11.4623 48.113 11.521 48.1811C11.5802 48.2492 11.6315 48.3463 11.6753 48.4723C11.7677 48.3038 11.8829 48.1757 12.0211 48.0881C12.1592 48.0004 12.3076 47.9566 12.4673 47.9566C12.6156 47.9566 12.747 47.9944 12.8609 48.0692C12.9749 48.1447 13.0598 48.2492 13.1151 48.3833C13.1703 48.5175 13.1979 48.719 13.1979 48.988V50.1608H12.9155V48.988C12.9155 48.7574 12.8987 48.599 12.8663 48.5128C12.8333 48.4264 12.7767 48.357 12.6971 48.3044C12.6176 48.2519 12.5226 48.2256 12.412 48.2256C12.2772 48.2256 12.1545 48.2647 12.0434 48.3443C11.9321 48.4231 11.8512 48.5283 11.7993 48.6597C11.7481 48.7918 11.7224 49.0116 11.7224 49.3196V50.1608H11.4481V49.0607C11.4481 48.8012 11.432 48.6253 11.3996 48.5323C11.3673 48.44 11.3113 48.3651 11.2311 48.3092C11.1509 48.2532 11.0551 48.2256 10.9446 48.2256C10.8165 48.2256 10.6972 48.2641 10.5861 48.3409C10.4749 48.4184 10.3926 48.5216 10.3394 48.6523C10.2861 48.7824 10.2591 48.9819 10.2591 49.2502V50.1608H9.98477L9.98477 48.0119ZM14.8535 47.9566C15.1837 47.9566 15.4574 48.0766 15.6751 48.3166C15.8726 48.535 15.971 48.7938 15.971 49.0924C15.971 49.3924 15.8665 49.6553 15.6583 49.8797C15.4493 50.1042 15.1811 50.2161 14.8535 50.2161C14.5245 50.2161 14.2556 50.1042 14.0467 49.8797C13.8377 49.6553 13.7339 49.3924 13.7339 49.0924C13.7339 48.7952 13.8323 48.537 14.0298 48.3186C14.2469 48.0773 14.5218 47.9566 14.8535 47.9566ZM14.8535 48.2276C14.6243 48.2276 14.4275 48.3126 14.263 48.4824C14.0985 48.6523 14.0163 48.8572 14.0163 49.0985C14.0163 49.2535 14.0534 49.3984 14.1289 49.5326C14.2037 49.6674 14.3048 49.7705 14.4329 49.844C14.5602 49.9168 14.7004 49.9532 14.8535 49.9532C15.0058 49.9532 15.146 49.9168 15.2741 49.844C15.4015 49.7705 15.5032 49.6674 15.5781 49.5326C15.6529 49.3984 15.6906 49.2535 15.6906 49.0985C15.6906 48.8572 15.6078 48.6523 15.4426 48.4824C15.2775 48.3126 15.0813 48.2276 14.8535 48.2276ZM16.5407 48.0119H16.817V48.3975C16.9275 48.2499 17.0502 48.1393 17.1844 48.0665C17.3185 47.9937 17.4648 47.9566 17.6232 47.9566C17.7836 47.9566 17.9258 47.9978 18.0505 48.0793C18.1746 48.1609 18.2669 48.2708 18.3255 48.4089C18.3848 48.5472 18.4145 48.7628 18.4145 49.0547V50.1608H18.1402V49.1356C18.1402 48.8882 18.1293 48.723 18.1085 48.6401C18.0755 48.4979 18.0141 48.3914 17.9231 48.3193C17.8321 48.2479 17.7134 48.2115 17.5672 48.2115C17.4001 48.2115 17.2504 48.2668 17.1183 48.3773C16.9862 48.4885 16.8986 48.6253 16.8568 48.7884C16.8304 48.8949 16.817 49.0897 16.817 49.3728V50.1608H16.5407L16.5407 48.0119ZM19.8718 49.6195L20.1185 49.4719C20.2924 49.7914 20.4932 49.9512 20.7211 49.9512C20.8181 49.9512 20.9098 49.9289 20.9954 49.8831C21.0811 49.8379 21.1464 49.7773 21.1909 49.7004C21.2361 49.6242 21.2583 49.5434 21.2583 49.4577C21.2583 49.36 21.2253 49.265 21.1592 49.1713C21.0682 49.0425 20.9024 48.8869 20.6618 48.7056C20.4198 48.5222 20.2688 48.3901 20.2095 48.3085C20.107 48.1717 20.0558 48.0234 20.0558 47.8643C20.0558 47.7376 20.0855 47.6224 20.1461 47.5185C20.2068 47.4147 20.2924 47.3325 20.4023 47.2725C20.5121 47.2125 20.6315 47.1829 20.7602 47.1829C20.8977 47.1829 21.0258 47.2165 21.1444 47.2847C21.2637 47.352 21.3898 47.4774 21.5226 47.6587L21.286 47.8387C21.1767 47.6938 21.0831 47.5981 21.0062 47.5522C20.9294 47.5064 20.8451 47.4828 20.7548 47.4828C20.6375 47.4828 20.5418 47.5185 20.467 47.59C20.3928 47.6607 20.3558 47.7484 20.3558 47.8522C20.3558 47.9155 20.3686 47.9769 20.3948 48.0362C20.4218 48.0955 20.4697 48.1595 20.5391 48.2297C20.5775 48.2661 20.7029 48.3631 20.9146 48.5195C21.166 48.7056 21.3386 48.8707 21.4322 49.0156C21.5253 49.1605 21.5724 49.3055 21.5724 49.4517C21.5724 49.6627 21.4922 49.8453 21.3324 50.001C21.172 50.1561 20.9779 50.2336 20.7488 50.2336C20.5721 50.2336 20.4124 50.187 20.2688 50.0927C20.1252 49.9983 19.9931 49.8406 19.8718 49.6195ZM24.0058 49.4477L24.2383 49.5704C24.1622 49.7206 24.0738 49.8413 23.9741 49.9337C23.8736 50.026 23.7611 50.0961 23.6364 50.1439C23.511 50.1918 23.3695 50.2161 23.2117 50.2161C22.8612 50.2161 22.5876 50.1015 22.3901 49.8717C22.1926 49.6418 22.0942 49.3823 22.0942 49.0924C22.0942 48.8201 22.1777 48.5768 22.3449 48.3638C22.5566 48.0928 22.8404 47.9566 23.1955 47.9566C23.5616 47.9566 23.8541 48.0962 24.0725 48.3739C24.2282 48.5701 24.3071 48.8147 24.3098 49.1079H22.3786C22.3833 49.3587 22.4635 49.5636 22.6172 49.7233C22.7716 49.8831 22.9616 49.9633 23.1881 49.9633C23.2973 49.9633 23.4039 49.9445 23.507 49.906C23.6101 49.8676 23.6984 49.817 23.7705 49.7537C23.8426 49.691 23.9215 49.5886 24.0058 49.4477ZM24.0058 48.8693C23.9687 48.7217 23.9148 48.6038 23.8447 48.5161C23.7739 48.4278 23.6808 48.3564 23.565 48.3024C23.449 48.2486 23.3277 48.2215 23.1996 48.2215C22.9893 48.2215 22.808 48.2897 22.657 48.4252C22.5465 48.5236 22.4629 48.6718 22.4063 48.8693H24.0058ZM24.8808 48.0119H25.1571V48.3975C25.2676 48.2499 25.3903 48.1393 25.5245 48.0665C25.6586 47.9937 25.8049 47.9566 25.9633 47.9566C26.1236 47.9566 26.2659 47.9978 26.3906 48.0793C26.5146 48.1609 26.607 48.2708 26.6656 48.4089C26.7249 48.5472 26.7546 48.7628 26.7546 49.0547V50.1608H26.4802V49.1356C26.4802 48.8882 26.4694 48.723 26.4486 48.6401C26.4155 48.4979 26.3542 48.3914 26.2632 48.3193C26.1722 48.2479 26.0535 48.2115 25.9073 48.2115C25.7401 48.2115 25.5905 48.2668 25.4584 48.3773C25.3263 48.4885 25.2386 48.6253 25.1968 48.7884C25.1705 48.8949 25.1571 49.0897 25.1571 49.3728V50.1608H24.8808V48.0119ZM28.4836 48.2472L28.3056 48.4312C28.158 48.2876 28.0137 48.2155 27.8729 48.2155C27.7833 48.2155 27.7071 48.2452 27.6431 48.3044C27.579 48.3638 27.5473 48.4332 27.5473 48.5121C27.5473 48.5815 27.5736 48.6482 27.6262 48.7116C27.6787 48.7756 27.7893 48.8518 27.9578 48.9387C28.1634 49.0453 28.3029 49.1477 28.3764 49.2468C28.4492 49.3466 28.4856 49.4591 28.4856 49.5845C28.4856 49.7604 28.4236 49.9101 28.2995 50.0327C28.1762 50.1547 28.0211 50.2161 27.8358 50.2161C27.7118 50.2161 27.5938 50.1891 27.4813 50.1352C27.3687 50.0813 27.2757 50.0065 27.2016 49.9121L27.3754 49.7146C27.5163 49.8736 27.666 49.9532 27.8237 49.9532C27.9342 49.9532 28.0286 49.9181 28.1061 49.8467C28.1836 49.7759 28.2227 49.6923 28.2227 49.596C28.2227 49.5171 28.1971 49.4463 28.1459 49.3849C28.0939 49.3243 27.9787 49.2475 27.7981 49.1558C27.6046 49.0554 27.4732 48.9569 27.4031 48.8592C27.3336 48.7621 27.2986 48.6509 27.2986 48.5256C27.2986 48.3625 27.3538 48.227 27.4651 48.1192C27.5763 48.0113 27.7172 47.9566 27.887 47.9566C28.0845 47.9566 28.2834 48.0537 28.4836 48.2472ZM30.838 49.4477L31.0706 49.5704C30.9944 49.7206 30.9061 49.8413 30.8063 49.9337C30.7059 50.026 30.5934 50.0961 30.4687 50.1439C30.3433 50.1918 30.2017 50.2161 30.044 50.2161C29.6935 50.2161 29.4198 50.1015 29.2224 49.8717C29.0249 49.6418 28.9265 49.3823 28.9265 49.0924C28.9265 48.8201 29.01 48.5768 29.1772 48.3638C29.3889 48.0928 29.6726 47.9566 30.0278 47.9566C30.3939 47.9566 30.6863 48.0962 30.9047 48.3739C31.0605 48.5701 31.1393 48.8147 31.142 49.1079H29.2109C29.2156 49.3587 29.2958 49.5636 29.4495 49.7233C29.6038 49.8831 29.794 49.9633 30.0204 49.9633C30.1296 49.9633 30.2361 49.9445 30.3392 49.906C30.4424 49.8676 30.5307 49.817 30.6028 49.7537C30.6749 49.691 30.7538 49.5886 30.838 49.4477ZM30.838 48.8693C30.8009 48.7217 30.7471 48.6038 30.6769 48.5161C30.6061 48.4278 30.5131 48.3564 30.3972 48.3024C30.2813 48.2486 30.1599 48.2215 30.0319 48.2215C29.8215 48.2215 29.6402 48.2897 29.4893 48.4252C29.3787 48.5236 29.2951 48.6718 29.2385 48.8693H30.838ZM33.6616 47.1829V47.4532C33.5599 47.41 33.4729 47.3884 33.4008 47.3884C33.3468 47.3884 33.3017 47.3993 33.2666 47.4208C33.2309 47.4424 33.2086 47.4673 33.1992 47.4956C33.1898 47.524 33.1851 47.5994 33.1851 47.7221V48.0119H33.634V48.2492H33.1837V50.1608H32.9067V48.2492H32.6243V48.0119H32.9067V47.6762C32.9067 47.5226 32.9208 47.4127 32.9491 47.3467C32.9775 47.2812 33.026 47.228 33.0934 47.1876C33.1615 47.1478 33.2431 47.1276 33.3394 47.1276C33.429 47.1276 33.5362 47.1458 33.6616 47.1829ZM35.1196 47.9566C35.45 47.9566 35.7236 48.0766 35.9413 48.3166C36.1388 48.535 36.2372 48.7938 36.2372 49.0924C36.2372 49.3924 36.1327 49.6553 35.9245 49.8797C35.7155 50.1042 35.4472 50.2161 35.1196 50.2161C34.7907 50.2161 34.5218 50.1042 34.3128 49.8797C34.1038 49.6553 34.0001 49.3924 34.0001 49.0924C34.0001 48.7952 34.0985 48.537 34.296 48.3186C34.513 48.0773 34.788 47.9566 35.1196 47.9566ZM35.1196 48.2276C34.8905 48.2276 34.6936 48.3126 34.5292 48.4824C34.3647 48.6523 34.2825 48.8572 34.2825 49.0985C34.2825 49.2535 34.3196 49.3984 34.395 49.5326C34.4698 49.6674 34.5709 49.7705 34.6991 49.844C34.8264 49.9168 34.9666 49.9532 35.1196 49.9532C35.2719 49.9532 35.4122 49.9168 35.5402 49.844C35.6676 49.7705 35.7694 49.6674 35.8442 49.5326C35.9191 49.3984 35.9568 49.2535 35.9568 49.0985C35.9568 48.8572 35.8739 48.6523 35.7087 48.4824C35.5436 48.3126 35.3475 48.2276 35.1196 48.2276ZM36.7024 48.0119H36.9848V48.3261C37.069 48.2027 37.158 48.1103 37.2511 48.049C37.3447 47.9877 37.4418 47.9566 37.5435 47.9566C37.6197 47.9566 37.7013 47.9816 37.7882 48.0301L37.644 48.2634C37.586 48.2377 37.5375 48.2256 37.4977 48.2256C37.4061 48.2256 37.3171 48.2634 37.2314 48.3388C37.1459 48.415 37.0805 48.5323 37.036 48.6914C37.0016 48.814 36.9848 49.0614 36.9848 49.4342V50.1608H36.7024L36.7024 48.0119ZM38.8883 49.6195L39.135 49.4719C39.3089 49.7914 39.5097 49.9512 39.7376 49.9512C39.8346 49.9512 39.9263 49.9289 40.0119 49.8831C40.0976 49.8379 40.1629 49.7773 40.2074 49.7004C40.2526 49.6242 40.2748 49.5434 40.2748 49.4577C40.2748 49.36 40.2417 49.265 40.1757 49.1713C40.0847 49.0425 39.9189 48.8869 39.6782 48.7056C39.4363 48.5222 39.2853 48.3901 39.226 48.3085C39.1235 48.1717 39.0723 48.0234 39.0723 47.8643C39.0723 47.7376 39.102 47.6224 39.1626 47.5185C39.2233 47.4147 39.3089 47.3325 39.4187 47.2725C39.5286 47.2125 39.648 47.1829 39.7767 47.1829C39.9142 47.1829 40.0423 47.2165 40.1609 47.2847C40.2802 47.352 40.4063 47.4774 40.539 47.6587L40.3025 47.8387C40.1932 47.6938 40.0995 47.5981 40.0227 47.5522C39.9459 47.5064 39.8616 47.4828 39.7713 47.4828C39.654 47.4828 39.5583 47.5185 39.4835 47.59C39.4093 47.6607 39.3723 47.7484 39.3723 47.8522C39.3723 47.9155 39.3851 47.9769 39.4113 48.0362C39.4383 48.0955 39.4862 48.1595 39.5556 48.2297C39.594 48.2661 39.7194 48.3631 39.9311 48.5195C40.1825 48.7056 40.355 48.8707 40.4487 49.0156C40.5418 49.1605 40.5889 49.3055 40.5889 49.4517C40.5889 49.6627 40.5087 49.8453 40.3489 50.001C40.1885 50.1561 39.9944 50.2336 39.7652 50.2336C39.5886 50.2336 39.4289 50.187 39.2853 50.0927C39.1417 49.9983 39.0096 49.8406 38.8883 49.6195ZM42.2302 47.9566C42.5606 47.9566 42.8342 48.0766 43.0519 48.3166C43.2494 48.535 43.3478 48.7938 43.3478 49.0924C43.3478 49.3924 43.2433 49.6553 43.0351 49.8797C42.8261 50.1042 42.5578 50.2161 42.2302 50.2161C41.9013 50.2161 41.6324 50.1042 41.4234 49.8797C41.2144 49.6553 41.1107 49.3924 41.1107 49.0924C41.1107 48.7952 41.2091 48.537 41.4066 48.3186C41.6236 48.0773 41.8986 47.9566 42.2302 47.9566ZM42.2302 48.2276C42.0011 48.2276 41.8042 48.3126 41.6398 48.4824C41.4753 48.6523 41.3931 48.8572 41.3931 49.0985C41.3931 49.2535 41.4302 49.3984 41.5056 49.5326C41.5805 49.6674 41.6815 49.7705 41.8097 49.844C41.937 49.9168 42.0772 49.9532 42.2302 49.9532C42.3825 49.9532 42.5228 49.9168 42.6508 49.844C42.7782 49.7705 42.8801 49.6674 42.9548 49.5326C43.0297 49.3984 43.0674 49.2535 43.0674 49.0985C43.0674 48.8572 42.9845 48.6523 42.8193 48.4824C42.6542 48.3126 42.4581 48.2276 42.2302 48.2276ZM44.8024 47.1829V47.4532C44.7007 47.41 44.6137 47.3884 44.5416 47.3884C44.4877 47.3884 44.4426 47.3993 44.4075 47.4208C44.3717 47.4424 44.3495 47.4673 44.34 47.4956C44.3306 47.524 44.3259 47.5994 44.3259 47.7221V48.0119H44.7748V48.2492H44.3246V50.1608H44.0475V48.2492H43.7651V48.0119H44.0475V47.6762C44.0475 47.5226 44.0616 47.4127 44.09 47.3467C44.1183 47.2812 44.1668 47.228 44.2342 47.1876C44.3023 47.1478 44.3839 47.1276 44.4802 47.1276C44.5699 47.1276 44.6771 47.1458 44.8024 47.1829ZM45.484 47.2145H45.763V48.0119H46.2011V48.2492H45.763V50.1608H45.484V48.2492H45.1072V48.0119H45.484V47.2145ZM46.3792 48.0119H46.6636L47.3214 49.5723L48.0103 48.0119H48.0603L48.7471 49.5723L49.4164 48.0119H49.7049L48.7727 50.1608H48.7194L48.0359 48.6226L47.3471 50.1608H47.2958L46.3792 48.0119ZM52.2272 48.0119V50.1608H51.9549V49.7914C51.839 49.9323 51.7089 50.0381 51.5646 50.1096C51.4204 50.1803 51.2626 50.2161 51.0915 50.2161C50.7875 50.2161 50.528 50.1055 50.3122 49.8851C50.0972 49.6647 49.9894 49.3964 49.9894 49.0804C49.9894 48.7709 50.0985 48.5067 50.3156 48.287C50.5327 48.0672 50.7942 47.9566 51.0995 47.9566C51.2761 47.9566 51.4359 47.9944 51.5781 48.0692C51.721 48.1447 51.8463 48.2573 51.9549 48.407V48.0119L52.2272 48.0119ZM51.1211 48.2236C50.9674 48.2236 50.8252 48.2613 50.6944 48.3368C50.5644 48.413 50.4605 48.5188 50.3837 48.6563C50.3069 48.7932 50.2684 48.9381 50.2684 49.0904C50.2684 49.2421 50.3069 49.387 50.3843 49.5252C50.4625 49.6633 50.5663 49.7705 50.6978 49.848C50.8286 49.9249 50.9695 49.9633 51.1191 49.9633C51.2708 49.9633 51.4143 49.9249 51.5498 49.8487C51.6852 49.7726 51.7897 49.6694 51.8625 49.5386C51.936 49.4086 51.9724 49.2616 51.9724 49.0985C51.9724 48.8498 51.8902 48.6415 51.7264 48.4743C51.5626 48.3072 51.361 48.2236 51.1211 48.2236ZM52.8009 48.0119H53.0833V48.3261C53.1675 48.2027 53.2565 48.1103 53.3496 48.049C53.4432 47.9877 53.5403 47.9566 53.6421 47.9566C53.7182 47.9566 53.7998 47.9816 53.8867 48.0301L53.7425 48.2633C53.6845 48.2377 53.636 48.2256 53.5962 48.2256C53.5046 48.2256 53.4156 48.2633 53.33 48.3388C53.2444 48.415 53.179 48.5323 53.1345 48.6914C53.1001 48.814 53.0833 49.0614 53.0833 49.4342V50.1608H52.8009V48.0119ZM55.9871 49.4477L56.2197 49.5704C56.1435 49.7206 56.0552 49.8413 55.9555 49.9337C55.855 50.026 55.7425 50.0961 55.6178 50.1439C55.4924 50.1918 55.3508 50.2161 55.1931 50.2161C54.8426 50.2161 54.569 50.1015 54.3715 49.8717C54.174 49.6418 54.0756 49.3823 54.0756 49.0924C54.0756 48.8201 54.1591 48.5768 54.3263 48.3638C54.5379 48.0928 54.8217 47.9566 55.1769 47.9566C55.5429 47.9566 55.8355 48.0962 56.0538 48.3739C56.2096 48.5701 56.2884 48.8147 56.2911 49.1079H54.36C54.3647 49.3587 54.4449 49.5636 54.5986 49.7233C54.753 49.8831 54.943 49.9633 55.1695 49.9633C55.2787 49.9633 55.3852 49.9445 55.4883 49.906C55.5915 49.8676 55.6798 49.817 55.7519 49.7537C55.824 49.691 55.9029 49.5886 55.9871 49.4477ZM55.9871 48.8693C55.95 48.7217 55.8961 48.6038 55.826 48.5161C55.7553 48.4278 55.6622 48.3564 55.5463 48.3024C55.4304 48.2486 55.309 48.2215 55.181 48.2215C54.9706 48.2215 54.7893 48.2897 54.6384 48.4252C54.5279 48.5236 54.4442 48.6718 54.3877 48.8693H55.9871ZM57.987 47.2556H58.5654C58.8882 47.2556 59.1066 47.2692 59.2212 47.2954C59.3938 47.3352 59.534 47.4194 59.6418 47.5489C59.7497 47.6789 59.8036 47.8387 59.8036 48.0281C59.8036 48.1859 59.7665 48.3247 59.6924 48.4446C59.6175 48.5647 59.5117 48.655 59.3729 48.7163C59.2347 48.7776 59.044 48.8087 58.8006 48.81L59.8453 50.1608H59.4855L58.4434 48.81H58.2775V50.1608H57.987V47.2556ZM58.2775 47.5401V48.5276L58.777 48.5316C58.9705 48.5316 59.1133 48.5134 59.2064 48.4764C59.2994 48.4393 59.3715 48.3806 59.4235 48.2998C59.4753 48.2189 59.5016 48.1279 59.5016 48.0281C59.5016 47.9304 59.4753 47.842 59.4227 47.7626C59.3702 47.683 59.3007 47.6257 59.2151 47.5913C59.1296 47.5576 58.9873 47.5401 58.7885 47.5401H58.2775ZM62.2457 49.4476L62.4782 49.5704C62.4021 49.7206 62.3138 49.8413 62.214 49.9337C62.1136 50.026 62.001 50.0961 61.8763 50.1439C61.751 50.1918 61.6094 50.2161 61.4517 50.2161C61.1011 50.2161 60.8275 50.1015 60.63 49.8717C60.4325 49.6418 60.3341 49.3823 60.3341 49.0924C60.3341 48.8201 60.4177 48.5768 60.5849 48.3638C60.7965 48.0928 61.0802 47.9566 61.4355 47.9566C61.8015 47.9566 62.094 48.0962 62.3124 48.3739C62.4682 48.5701 62.547 48.8147 62.5497 49.1079H60.6185C60.6232 49.3587 60.7034 49.5636 60.8572 49.7233C61.0115 49.8831 61.2016 49.9633 61.428 49.9633C61.5373 49.9633 61.6438 49.9444 61.7469 49.906C61.8501 49.8676 61.9383 49.817 62.0105 49.7537C62.0826 49.691 62.1614 49.5886 62.2457 49.4476ZM62.2457 48.8693C62.2086 48.7217 62.1547 48.6038 62.0846 48.5161C62.0138 48.4278 61.9208 48.3564 61.8048 48.3024C61.689 48.2486 61.5676 48.2215 61.4395 48.2215C61.2292 48.2215 61.0479 48.2897 60.8969 48.4252C60.7864 48.5235 60.7028 48.6718 60.6462 48.8693H62.2457ZM63.0795 47.1829H63.3559V50.1608H63.0795V47.1829ZM65.7953 49.4477L66.0278 49.5704C65.9516 49.7206 65.8633 49.8413 65.7636 49.9337C65.6632 50.026 65.5506 50.0961 65.4259 50.1439C65.3005 50.1918 65.159 50.2161 65.0013 50.2161C64.6508 50.2161 64.3771 50.1015 64.1796 49.8717C63.9821 49.6418 63.8837 49.3823 63.8837 49.0924C63.8837 48.8201 63.9672 48.5768 64.1345 48.3638C64.3461 48.0928 64.6299 47.9566 64.9851 47.9566C65.3511 47.9566 65.6436 48.0962 65.862 48.3739C66.0177 48.5701 66.0966 48.8147 66.0993 49.1079H64.1682C64.1729 49.3587 64.2531 49.5636 64.4067 49.7233C64.5611 49.8831 64.7512 49.9633 64.9777 49.9633C65.0868 49.9633 65.1934 49.9445 65.2965 49.906C65.3996 49.8676 65.4879 49.817 65.5601 49.7537C65.6321 49.691 65.7111 49.5886 65.7953 49.4477ZM65.7953 48.8693C65.7582 48.7217 65.7043 48.6038 65.6342 48.5161C65.5634 48.4278 65.4704 48.3564 65.3545 48.3024C65.2385 48.2486 65.1172 48.2215 64.9892 48.2215C64.7788 48.2215 64.5975 48.2897 64.4465 48.4252C64.336 48.5236 64.2524 48.6718 64.1958 48.8693H65.7953ZM68.8111 48.0119V50.1608H68.5387V49.7914C68.4228 49.9323 68.2927 50.0381 68.1484 50.1096C68.0042 50.1803 67.8465 50.2161 67.6753 50.2161C67.3712 50.2161 67.1118 50.1055 66.8961 49.8851C66.681 49.6647 66.5732 49.3964 66.5732 49.0804C66.5732 48.7709 66.6824 48.5067 66.8994 48.287C67.1165 48.0672 67.378 47.9566 67.6833 47.9566C67.8599 47.9566 68.0197 47.9944 68.1619 48.0692C68.3048 48.1447 68.4301 48.2573 68.5387 48.407V48.0119H68.8111ZM67.7049 48.2236C67.5513 48.2236 67.409 48.2614 67.2782 48.3368C67.1481 48.413 67.0443 48.5188 66.9675 48.6563C66.8906 48.7932 66.8523 48.9381 66.8523 49.0904C66.8523 49.2421 66.8906 49.387 66.9681 49.5252C67.0463 49.6633 67.1501 49.7705 67.2816 49.848C67.4124 49.9249 67.5533 49.9633 67.7029 49.9633C67.8546 49.9633 67.9981 49.9249 68.1336 49.8487C68.2691 49.7726 68.3736 49.6694 68.4464 49.5386C68.5199 49.4086 68.5563 49.2617 68.5563 49.0985C68.5563 48.8498 68.474 48.6415 68.3102 48.4743C68.1464 48.3072 67.9449 48.2236 67.7049 48.2236ZM70.5696 48.2472L70.3917 48.4312C70.2441 48.2876 70.0999 48.2155 69.959 48.2155C69.8693 48.2155 69.7931 48.2452 69.7291 48.3045C69.6651 48.3638 69.6334 48.4332 69.6334 48.5121C69.6334 48.5815 69.6597 48.6482 69.7122 48.7116C69.7648 48.7756 69.8754 48.8518 70.0439 48.9387C70.2495 49.0453 70.389 49.1477 70.4625 49.2468C70.5353 49.3466 70.5717 49.4591 70.5717 49.5845C70.5717 49.7604 70.5097 49.9101 70.3856 50.0327C70.2623 50.1547 70.1073 50.2161 69.9219 50.2161C69.7979 50.2161 69.6799 50.1891 69.5673 50.1352C69.4547 50.0813 69.3618 50.0065 69.2876 49.9121L69.4615 49.7146C69.6024 49.8736 69.752 49.9532 69.9098 49.9532C70.0203 49.9532 70.1146 49.9181 70.1922 49.8467C70.2697 49.7759 70.3088 49.6923 70.3088 49.596C70.3088 49.5171 70.2832 49.4463 70.2319 49.3849C70.18 49.3243 70.0648 49.2475 69.8842 49.1558C69.6907 49.0554 69.5593 48.9569 69.4892 48.8592C69.4198 48.7621 69.3847 48.6509 69.3847 48.5256C69.3847 48.3625 69.4399 48.227 69.5511 48.1192C69.6624 48.0113 69.8033 47.9566 69.9731 47.9566C70.1706 47.9566 70.3695 48.0537 70.5696 48.2472ZM72.9241 49.4477L73.1567 49.5704C73.0805 49.7206 72.9922 49.8413 72.8924 49.9337C72.792 50.026 72.6795 50.0961 72.5547 50.1439C72.4294 50.1918 72.2878 50.2161 72.1301 50.2161C71.7796 50.2161 71.5059 50.1015 71.3084 49.8717C71.1109 49.6418 71.0125 49.3823 71.0125 49.0924C71.0125 48.8201 71.0961 48.5768 71.2633 48.3638C71.4749 48.0928 71.7587 47.9566 72.1139 47.9566C72.48 47.9566 72.7724 48.0962 72.9909 48.3739C73.1466 48.5701 73.2254 48.8147 73.2281 49.1079H71.2969C71.3017 49.3587 71.3819 49.5636 71.5356 49.7233C71.6899 49.8831 71.8801 49.9633 72.1064 49.9633C72.2157 49.9633 72.3222 49.9445 72.4253 49.906C72.5285 49.8676 72.6167 49.817 72.6889 49.7537C72.761 49.691 72.8399 49.5886 72.9241 49.4477ZM72.9241 48.8693C72.8871 48.7217 72.8331 48.6038 72.7631 48.5161C72.6922 48.4278 72.5992 48.3564 72.4833 48.3024C72.3674 48.2486 72.246 48.2215 72.1179 48.2215C71.9076 48.2215 71.7263 48.2897 71.5753 48.4252C71.4648 48.5236 71.3812 48.6718 71.3246 48.8693L72.9241 48.8693ZM74.8795 48.2472L74.7016 48.4312C74.554 48.2876 74.4098 48.2155 74.2689 48.2155C74.1793 48.2155 74.1031 48.2452 74.0391 48.3045C73.9751 48.3638 73.9433 48.4332 73.9433 48.5121C73.9433 48.5815 73.9696 48.6482 74.0222 48.7116C74.0748 48.7756 74.1853 48.8518 74.3538 48.9387C74.5594 49.0453 74.6989 49.1477 74.7724 49.2468C74.8452 49.3466 74.8816 49.4591 74.8816 49.5845C74.8816 49.7604 74.8196 49.9101 74.6955 50.0327C74.5722 50.1547 74.4172 50.2161 74.2318 50.2161C74.1078 50.2161 73.9898 50.1891 73.8772 50.1352C73.7647 50.0813 73.6717 50.0065 73.5976 49.9121L73.7714 49.7146C73.9123 49.8736 74.062 49.9532 74.2197 49.9532C74.3302 49.9532 74.4246 49.9181 74.5021 49.8467C74.5797 49.7759 74.6188 49.6923 74.6188 49.596C74.6188 49.5171 74.5931 49.4463 74.5419 49.3849C74.49 49.3243 74.3747 49.2475 74.1941 49.1558C74.0007 49.0554 73.8692 48.9569 73.7991 48.8592C73.7297 48.7621 73.6946 48.6509 73.6946 48.5256C73.6946 48.3625 73.7499 48.227 73.8611 48.1192C73.9723 48.0113 74.1132 47.9566 74.283 47.9566C74.4806 47.9566 74.6794 48.0537 74.8795 48.2472Z" fill="#757575"/>
<path fill-rule="evenodd" clip-rule="evenodd" d="M58.8548 25.2901L58.4958 25.3087L59.0958 24.5704L58.8548 25.2901ZM60.6497 23.0103L64.4349 19.0283C64.507 18.9658 64.5339 18.9647 64.6296 18.9527L74.0279 20.4417L60.6497 23.0103H60.6497ZM55.8714 26.5366C55.8329 26.5878 55.7775 26.6081 55.744 26.5981L52.2145 24.8783C52.1915 24.8605 52.1866 24.8597 52.183 24.8312L61.9088 20.1557L55.8714 26.5366V26.5366ZM76.9247 19.4144C76.8942 19.4574 76.8819 19.4402 76.8461 19.3988L75.0454 17.2812L78.9847 16.427L76.9246 19.4144L76.9247 19.4144ZM65.0459 17.9174L68.1871 11.1833L75.7407 19.6844L65.0554 17.9928C65.0183 17.964 65.0305 17.9615 65.0459 17.9174L65.0459 17.9174ZM81.8727 13.4463L83.4141 14.7322L81.1166 14.9702L81.8727 13.4463ZM80.9642 13.127L79.9847 15.108L74.2123 16.3521L72.9049 14.9392L77.0456 13.035L80.9861 13.0988L80.9642 13.1271L80.9642 13.127ZM76.6692 8.84469L75.9073 11.9245L75.7566 12.5342L72.263 14.0717C72.1751 14.1022 72.1451 14.0773 72.0744 13.9935L70.3638 12.1111C70.3433 12.0704 70.3405 12.0582 70.344 12.004L74.6656 2.10082L76.6627 8.59023L76.6849 8.76611L76.6692 8.8447V8.84469ZM56.1931 4.39251L67.354 10.3934L64.122 17.2217L56.1931 4.39251ZM74.1967 0.319317L69.5197 11.1875L68.3076 9.80679C68.2029 9.70911 68.1274 9.6542 67.9994 9.59039L55.0523 2.53585C54.54 2.37101 54.1098 2.82464 54.3042 3.3353L63.4749 18.2426L50.7169 24.3812C50.4352 24.537 50.3585 25.0201 50.6374 25.2529L55.5439 27.6528C55.8287 27.784 55.964 27.8327 56.2069 27.6457L57.4289 26.3792C57.4851 26.3109 57.511 26.2922 57.5953 26.2815L59.438 26.3117C59.5702 26.2913 59.6283 26.2219 59.6672 26.1041L60.2863 24.2195C60.3076 24.1588 60.3187 24.1595 60.3773 24.1315L77.0419 20.9468C77.1515 20.9164 77.2081 20.8741 77.2774 20.7894L80.5009 16.0952L85.0805 15.5997C85.3817 15.5549 85.3883 15.2328 85.2372 15.0716L82.1447 12.3652C81.9647 12.1793 81.811 12.1686 81.5568 12.1587L76.8236 12.1172L77.6404 8.84964L77.6559 8.77105L77.6178 8.46949L75.1437 0.408401C75.0203 -0.0276799 74.416 -0.197622 74.1967 0.319301V0.319317Z" fill="url(#paint0_linear_35_665)"/>
<path fill-rule="evenodd" clip-rule="evenodd" d="M85.5925 36.7776L89.2429 33.1541C89.279 33.118 89.3304 33.1191 89.3755 33.1345L95.8849 35.3776L85.5925 36.7775V36.7776ZM82.4421 38.3915C82.4342 38.3993 82.4214 38.4003 82.4087 38.397L81.2011 37.9304C82.6566 37.0628 84.112 36.1941 85.5651 35.3227L82.4421 38.3915ZM98.2454 34.7188C98.2049 34.7612 98.1938 34.7354 98.163 34.6913L97.2572 33.2365L99.8372 33.0992C99.3022 33.6342 98.7756 34.179 98.2454 34.7188ZM89.9839 32.1934L92.8109 27.9935L96.9279 34.6365C94.6315 33.8496 92.3352 33.0627 90.0388 32.2758C89.9985 32.2677 89.9739 32.2457 89.9839 32.1934L89.9839 32.1934ZM102.115 32.0561L102.527 31.4796C102.534 31.4716 102.544 31.4721 102.554 31.4796L103.103 32.1385L102.115 32.0561ZM100.88 32.0012L96.5985 32.166L96.0497 31.2875L96.0031 31.1983L98.904 30.4915C98.9616 30.4771 99.0094 30.464 99.0687 30.464L101.621 30.9856L100.88 32.0012ZM85.4004 21.8447L92.0645 27.0835C92.1012 27.1202 92.1075 27.1471 92.0973 27.1975C91.1641 28.5882 90.2309 29.979 89.2978 31.3699C89.2794 31.3952 89.2611 31.3922 89.2429 31.3699L85.4004 21.8447L85.4004 21.8447ZM90.8622 20.2526L94.3205 24.1231L94.4302 24.2603L94.4577 24.3975L95.7751 30.1072L95.4183 30.2444L93.305 26.8406C93.2541 26.7643 93.2056 26.6863 93.1403 26.621L91.3014 25.1387L90.8897 20.7193L90.8622 20.2526H90.8622ZM89.682 18.6605V18.7978L90.1761 24.0956L90.1896 24.2988L84.6319 19.9232C84.2324 19.6235 83.7647 19.779 83.6987 20.3076C85.2997 24.2969 86.9008 28.2863 88.5018 32.2758C88.5215 32.3213 88.5088 32.3568 88.4744 32.3856L79.718 37.6346C79.3743 37.8406 79.4779 38.3054 79.7464 38.5069L82.1892 39.4127C82.5612 39.5366 82.7462 39.4959 83.04 39.2755L83.8908 39.4677C84.168 39.4677 84.3033 39.4394 84.4947 39.248L85.2357 37.8755L98.0257 36.1188C98.1963 36.0944 98.3349 36.084 98.4648 35.954L101.319 33.0443L103.923 33.2085C104.282 33.2085 105.1 33.2769 104.837 32.6606L102.994 30.3542C102.836 30.1442 102.642 30.1021 102.39 30.0523L99.2334 29.4484C99.0611 29.4238 98.9062 29.4341 98.7393 29.4758L96.7906 29.9425L95.3908 23.8485L95.3085 23.6839L90.5603 18.3586C90.1803 18.1055 89.799 18.2512 89.682 18.6605L89.682 18.6605Z" fill="url(#paint1_linear_35_665)"/>
<defs>
<linearGradient id="paint0_linear_35_665" x1="81.3264" y1="15.5423" x2="52.7087" y2="11.658" gradientUnits="userSpaceOnUse">
<stop stop-color="#7070F7"/>
<stop offset="0.45098" stop-color="#99FFFF"/>
<stop offset="1" stop-color="#59FC84"/>
</linearGradient>
<linearGradient id="paint1_linear_35_665" x1="79.3743" y1="28.8211" x2="105.1" y2="28.8211" gradientUnits="userSpaceOnUse">
<stop stop-color="#CC66FF"/>
<stop offset="0.560784" stop-color="#FFE378"/>
<stop offset="1" stop-color="#FF9482"/>
</linearGradient>
</defs>
</svg>
